<?xml version="1.0" encoding="UTF-8" standalone="no"?>
<!-- Created with Inkscape (http://www.inkscape.org/) -->

<svg
   xmlns:dc="http://purl.org/dc/elements/1.1/"
   xmlns:cc="http://creativecommons.org/ns#"
   xmlns:rdf="http://www.w3.org/1999/02/22-rdf-syntax-ns#"
   xmlns:svg="http://www.w3.org/2000/svg"
   xmlns="http://www.w3.org/2000/svg"
   xmlns:sodipodi="http://sodipodi.sourceforge.net/DTD/sodipodi-0.dtd"
   xmlns:inkscape="http://www.inkscape.org/namespaces/inkscape"
   width="64px"
   height="64px"
   id="svg2985"
   version="1.1"
   inkscape:version="0.48.0 r9654"
   sodipodi:docname="ZSTU.svg">
  <defs
     id="defs2987" />
  <sodipodi:namedview
     id="base"
     pagecolor="#ffffff"
     bordercolor="#666666"
     borderopacity="1.0"
     inkscape:pageopacity="0.0"
     inkscape:pageshadow="2"
     inkscape:zoom="5.8077077"
     inkscape:cx="33.988702"
     inkscape:cy="30.076334"
     inkscape:current-layer="layer1"
     showgrid="true"
     inkscape:document-units="px"
     inkscape:grid-bbox="true"
     inkscape:window-width="1280"
     inkscape:window-height="671"
     inkscape:window-x="0"
     inkscape:window-y="28"
     inkscape:window-maximized="1" />
  <metadata
     id="metadata2990">
    <rdf:RDF>
      <cc:Work
         rdf:about="">
        <dc:format>image/svg+xml</dc:format>
        <dc:type
           rdf:resource="http://purl.org/dc/dcmitype/StillImage" />
        <dc:title />
      </cc:Work>
    </rdf:RDF>
  </metadata>
  <g
     id="layer1"
     inkscape:label="Layer 1"
     inkscape:groupmode="layer">
    <g
       id="g3003"
       transform="matrix(0.22498748,0,0,0.22498748,41.606177,0.83645825)">
      <g
         transform="translate(0.61290904,0)"
         id="g3842">
        <g
           id="g3044">
          <path
             sodipodi:nodetypes="cccssc"
             inkscape:connector-curvature="0"
             id="path3006"
             d="m -118.24703,91.535064 c 20.601381,12.385526 35.572978,16.803136 89.384505,18.047306 l -14.287197,14.46832 c -22.335329,-0.14549 -40.314361,-2.77627 -54.40825,-9.12295 -10.097838,-4.54721 -19.898058,-12.92999 -20.036648,-14.76315 z"
             style="fill:#0000ff;stroke:none" />
          <path
             sodipodi:nodetypes="cccssc"
             inkscape:connector-curvature="0"
             id="path3006-9"
             d="m -116.95558,107.64469 c 13.61053,11.59316 29.623099,21.71577 70.52948,20.74133 l -11.831314,13.04207 c -14.969499,-0.14549 -29.111631,-3.41016 -40.157557,-9.75684 -7.914059,-4.54721 -17.374539,-12.14319 -17.553879,-13.97079 z"
             style="fill:#0000ff;stroke:none" />
          <path
             sodipodi:nodetypes="ccccc"
             inkscape:connector-curvature="0"
             id="path3006-9-3"
             d="m -112.78493,126.13225 c 12.21968,11.344 24.401836,18.21344 50.664068,19.77157 l -9.408133,9.96738 c -11.388477,-1.413 -26.731309,-4.62435 -40.329635,-21.47135 z"
             style="fill:#0000ff;stroke:none" />
        </g>
        <path
           inkscape:connector-curvature="0"
           style="fill:#009000;fill-opacity:1;stroke:none"
           d="m -29.5,73.25 c -18.429703,-0.221046 -36.157534,3.344169 -47.5,9.34375 -8.774269,4.641136 -15.969568,9.238068 -22.03125,13.84375 L -89.5,99.3125 C -41.968082,70.985727 31.591885,85.514413 27.25,122.84375 23.995202,150.82685 -5.0197835,176.45933 -57.65625,181.5 l 62.9375,-72.90625 -27.125,0 c 0,0 -56.737538,63.77491 -71.96875,81.21875 -15.44016,17.68314 30.294303,18.75282 73.0625,4.53125 C 10.506987,183.94997 44.52555,154.21744 44.03125,125.0625 43.400835,87.879174 5.6839782,73.671997 -29.5,73.25 z m -89.5625,43.40625 c -1.42434,1.98831 -2.73341,4.02171 -3.96875,6.0625 -5.32741,8.80085 -12.90024,43.1979 30.59375,55.53125 -40.51922,-16.09631 -28.9603,-44.98508 -24.53125,-52.25 0.52511,-0.86133 1.06976,-1.69895 1.625,-2.53125 -1.22772,-2.23405 -2.43634,-4.42937 -3.71875,-6.8125 z"
           id="path3051" />
      </g>
      <path
         transform="matrix(1.2042002,0,0,1.2042002,140.83232,-30.257689)"
         d="m -40,139.27272 c 0,61.2534 -49.65569,110.90909 -110.90909,110.90909 -61.2534,0 -110.90909,-49.65569 -110.90909,-110.90909 0,-61.253398 49.65569,-110.909088 110.90909,-110.909088 61.2534,0 110.90909,49.65569 110.90909,110.909088 z"
         sodipodi:ry="110.90909"
         sodipodi:rx="110.90909"
         sodipodi:cy="139.27272"
         sodipodi:cx="-150.90909"
         id="path3004"
         style="fill:none;stroke:#0000ff;stroke-width:3.63311672;stroke-miterlimit:4;stroke-dasharray:none"
         sodipodi:type="arc" />
      <path
         transform="matrix(0.86500074,0,0,0.86500074,89.644039,16.983543)"
         d="m -40,139.27272 c 0,61.2534 -49.65569,110.90909 -110.90909,110.90909 -61.2534,0 -110.90909,-49.65569 -110.90909,-110.90909 0,-61.253398 49.65569,-110.909088 110.90909,-110.909088 61.2534,0 110.90909,49.65569 110.90909,110.909088 z"
         sodipodi:ry="110.90909"
         sodipodi:rx="110.90909"
         sodipodi:cy="139.27272"
         sodipodi:cx="-150.90909"
         id="path3004-1"
         style="fill:none;stroke:#808080;stroke-width:1.87861109;stroke-miterlimit:4;stroke-dasharray:none"
         sodipodi:type="arc" />
      <text
         transform="scale(1.0932454,0.91470773)"
         sodipodi:linespacing="125%"
         id="text3853"
         y="242.36261"
         x="-61.968956"
         style="font-size:21.51441383px;font-style:normal;font-weight:normal;line-height:125%;letter-spacing:0px;word-spacing:0px;fill:#808080;fill-opacity:1;stroke:none;font-family:Bitstream Vera Sans"
         xml:space="preserve"><tspan
           style="font-style:normal;font-variant:normal;font-weight:normal;font-stretch:normal;fill:#808080;stroke:none;font-family:Arial;-inkscape-font-specification:Arial"
           y="242.36261"
           x="-61.968956"
           id="tspan3855"
           sodipodi:role="line">1897</tspan></text>
      <g
         style="font-size:40px;font-style:normal;font-weight:normal;line-height:127.99999714%;letter-spacing:0px;word-spacing:0px;fill:#008000;fill-opacity:1;stroke:none;font-family:Bitstream Vera Sans"
         id="text3944">
        <path
           d="m -145.56185,112.86238 -1.36915,-0.32087 -5.80368,-7.38629 c -0.41201,-0.52451 -0.76286,-1.01329 -1.05255,-1.46635 l -1.45818,6.22205 -1.31591,-0.3084 1.87174,-7.98673 1.31591,0.3084 6.26863,8.07299 0.62481,0.86058 1.66852,-7.1196 1.31591,0.30839 -2.06605,8.81583"
           style="font-size:16px;font-variant:normal;font-stretch:normal;letter-spacing:1.11000001px;fill:#008000;font-family:Arial;-inkscape-font-specification:Arial"
           id="path3035" />
        <path
           d="m -142.37278,101.45011 -10.52034,-4.527291 0.59911,-1.392187 4.32008,1.859093 2.35321,-5.468283 -4.32009,-1.859094 0.59911,-1.392188 10.52035,4.527294 -0.59911,1.392188 -4.95878,-2.133943 -2.3532,5.468284 4.95877,2.133947 -0.59911,1.39218"
           style="font-size:16px;font-variant:normal;font-stretch:normal;letter-spacing:1.11000001px;fill:#008000;font-family:Arial;-inkscape-font-specification:Arial"
           id="path3037" />
        <path
           d="m -137.14021,89.922819 -9.95896,-5.656265 4.0898,-7.20088 1.17524,0.667485 -3.34129,5.882983 3.05018,1.732376 3.12908,-5.509352 1.16845,0.663627 -3.12908,5.509353 3.38985,1.92529 3.47247,-6.113954 1.17523,0.667486 -4.22097,7.431851"
           style="font-size:16px;font-variant:normal;font-stretch:normal;letter-spacing:1.11000001px;fill:#008000;font-family:Arial;-inkscape-font-specification:Arial"
           id="path3039" />
        <path
           d="m -134.25588,78.591215 0.62255,-1.231585 c 0.74074,0.467176 1.32684,0.672497 1.75829,0.615965 0.43145,-0.05653 0.79366,-0.296942 1.08664,-0.721248 0.21603,-0.312867 0.33175,-0.631707 0.34717,-0.956523 0.0111,-0.327766 -0.0759,-0.618852 -0.26098,-0.873259 -0.18939,-0.257355 -0.5541,-0.572476 -1.09412,-0.945362 l -6.49313,-4.483443 0.86118,-1.247194 6.42241,4.434612 c 0.7886,0.544531 1.33275,1.062673 1.63246,1.554428 0.30266,0.487481 0.42404,1.017507 0.36413,1.59008 -0.0569,0.568296 -0.27778,1.131025 -0.66249,1.688188 -0.57116,0.827179 -1.24701,1.297246 -2.02756,1.410201 -0.77759,0.108673 -1.62977,-0.169614 -2.55655,-0.83486"
           style="font-size:16px;font-variant:normal;font-stretch:normal;letter-spacing:1.11000001px;fill:#008000;font-family:Arial;-inkscape-font-specification:Arial"
           id="path3041" />
        <path
           d="m -125.67171,72.198038 -9.00302,-7.079524 0.93685,-1.191396 9.00302,7.079524 -0.93685,1.191396"
           style="font-size:16px;font-variant:normal;font-stretch:normal;letter-spacing:1.11000001px;fill:#008000;font-family:Arial;-inkscape-font-specification:Arial"
           id="path3043" />
        <path
           d="m -123.23856,68.973491 -5.4699,-10.981825 1.10341,-1.203566 11.60991,4.28447 -1.16676,1.27267 -3.45965,-1.359343 -3.2363,3.530077 1.70686,3.271227 -1.08757,1.18629 m -1.23352,-5.614158 2.62389,-2.862068 -3.14578,-1.26238 c -0.95661,-0.382384 -1.72318,-0.717735 -2.29971,-1.006052 0.44278,0.603775 0.84123,1.248169 1.19536,1.933185 l 1.62624,3.197315"
           style="font-size:16px;font-variant:normal;font-stretch:normal;letter-spacing:1.11000001px;fill:#008000;font-family:Arial;-inkscape-font-specification:Arial"
           id="path3045" />
        <path
           d="m -114.30196,59.470302 -7.53038,-8.62945 1.17139,-1.022201 10.44485,2.819989 -5.91233,-6.775237 1.09487,-0.955424 7.53038,8.629451 -1.17139,1.0222 -10.44998,-2.825875 5.91746,6.781124 -1.09487,0.955423"
           style="font-size:16px;font-variant:normal;font-stretch:normal;letter-spacing:1.11000001px;fill:#008000;font-family:Arial;-inkscape-font-specification:Arial"
           id="path3047" />
        <path
           d="m -102.67658,44.54785 -0.75037,-1.114726 4.020319,-2.715653 2.373252,3.525645 c -0.286303,0.908461 -0.673475,1.709024 -1.161518,2.401692 -0.490966,0.688357 -1.082097,1.265205 -1.773393,1.730545 -0.93326,0.628216 -1.91606,1.000967 -2.94838,1.118251 -1.03091,0.110061 -1.99528,-0.08209 -2.89311,-0.576448 -0.89783,-0.494353 -1.66085,-1.20816 -2.28906,-2.141424 -0.6224,-0.924611 -1.01035,-1.916002 -1.16387,-2.974176 -0.1521,-1.065386 0.004,-2.036817 0.46801,-2.914296 0.46411,-0.877457 1.16928,-1.63466 2.1155,-2.271612 0.68698,-0.462421 1.38261,-0.767439 2.08689,-0.915055 0.70569,-0.154816 1.35003,-0.139638 1.93301,0.04553 0.58297,0.1852 1.17178,0.542261 1.76641,1.071183 l -0.92477,1.074541 c -0.46832,-0.387922 -0.90141,-0.648894 -1.29925,-0.782917 -0.39785,-0.133997 -0.84863,-0.150762 -1.35232,-0.05029 -0.50661,0.09617 -0.99971,0.305667 -1.4793,0.628487 -0.57464,0.386829 -1.0119,0.809867 -1.31175,1.269117 -0.30277,0.454951 -0.48779,0.912253 -0.55508,1.37191 -0.063,0.456767 -0.0508,0.903799 0.0363,1.341098 0.15358,0.750486 0.4616,1.469215 0.92403,2.156191 0.57005,0.846851 1.19176,1.458005 1.86516,1.833462 0.67771,0.372558 1.38831,0.509504 2.13181,0.410838 0.7435,-0.09866 1.4285,-0.358848 2.05499,-0.78057 0.5444,-0.366453 1.006037,-0.827881 1.384917,-1.384285 0.37596,-0.560712 0.617901,-1.05005 0.725826,-1.468013 l -1.190989,-1.769303 -2.793294,1.880279"
           style="font-size:16px;font-variant:normal;font-stretch:normal;letter-spacing:1.11000001px;fill:#008000;font-family:Arial;-inkscape-font-specification:Arial"
           id="path3049" />
        <path
           d="m -90.253279,38.197928 1.258806,-0.689232 c 0.292325,0.497361 0.62489,0.866128 0.997696,1.106301 0.375479,0.233318 0.847729,0.350195 1.416752,0.350632 0.566923,-0.0043 1.148441,-0.13736 1.744556,-0.399102 0.529341,-0.23242 0.962142,-0.51631 1.298404,-0.851669 0.33625,-0.335351 0.542464,-0.681867 0.618642,-1.039549 0.07884,-0.364534 0.04707,-0.708946 -0.09531,-1.033236 -0.144487,-0.329046 -0.365499,-0.573301 -0.663037,-0.732765 -0.299645,-0.164218 -0.705476,-0.233467 -1.217495,-0.207745 -0.329529,0.01386 -1.026201,0.117823 -2.090021,0.311879 -1.065918,0.189301 -1.837034,0.266221 -2.313351,0.230759 -0.615898,-0.04242 -1.132641,-0.202334 -1.550231,-0.479737 -0.414912,-0.284252 -0.728111,-0.66721 -0.939598,-1.148875 -0.232421,-0.529338 -0.298921,-1.088875 -0.199499,-1.678614 0.09733,-0.594488 0.382168,-1.13764 0.854505,-1.629459 0.472341,-0.491795 1.061408,-0.892648 1.767203,-1.202559 0.777327,-0.341294 1.51715,-0.515395 2.219471,-0.522302 0.704991,-0.01374 1.324035,0.152446 1.857132,0.498567 0.53309,0.346147 0.946616,0.821572 1.24058,1.426277 l -1.286547,0.684347 c -0.362591,-0.631455 -0.825664,-1.025398 -1.389221,-1.181831 -0.558794,-0.158502 -1.241161,-0.06082 -2.047101,0.293035 -0.839324,0.368539 -1.384073,0.792595 -1.634249,1.272168 -0.2475,0.472732 -0.275977,0.926076 -0.08543,1.360036 0.16542,0.37675 0.437437,0.627051 0.816053,0.750903 0.373847,0.125962 1.180033,0.07062 2.418563,-0.166033 1.2412,-0.243497 2.11351,-0.362004 2.616932,-0.355521 0.733953,0.01335 1.341655,0.173144 1.823109,0.479375 0.479347,0.30148 0.842564,0.733579 1.089653,1.2963 0.24498,0.557966 0.316599,1.155074 0.214858,1.791324 -0.10385,0.631492 -0.395488,1.217449 -0.874913,1.757873 -0.476764,0.533568 -1.0895,0.964722 -1.838209,1.293464 -0.949013,0.41669 -1.80614,0.628075 -2.571383,0.634156 -0.760479,0.004 -1.445766,-0.189996 -2.055863,-0.581957 -0.607423,-0.39882 -1.074574,-0.944556 -1.401455,-1.63721"
           style="font-size:16px;font-variant:normal;font-stretch:normal;letter-spacing:1.11000001px;fill:#008000;font-family:Arial;-inkscape-font-specification:Arial"
           id="path3052" />
        <path
           d="m -70.771494,30.570099 1.561416,-0.07512 c 0.05853,1.283367 -0.212766,2.359526 -0.813895,3.22848 -0.597679,0.862462 -1.467024,1.467348 -2.608037,1.81466 -1.180885,0.359449 -2.215329,0.412998 -3.103334,0.160647 -0.884546,-0.258847 -1.659913,-0.785031 -2.326104,-1.578553 -0.66121,-0.795033 -1.151063,-1.715726 -1.469561,-2.76208 -0.347313,-1.141013 -0.433142,-2.201019 -0.257487,-3.180021 0.179123,-0.985484 0.603051,-1.819556 1.271787,-2.502219 0.672201,-0.689139 1.491615,-1.18083 2.458244,-1.475074 1.096173,-0.333651 2.102889,-0.335206 3.020152,-0.0047 0.917252,0.330567 1.676808,0.956838 2.278671,1.878815 l -1.325146,0.770849 c -0.496784,-0.719858 -1.042188,-1.1881 -1.636213,-1.404727 -0.594034,-0.216604 -1.257271,-0.213437 -1.989712,0.0095 -0.842065,0.256327 -1.48568,0.672729 -1.930848,1.249209 -0.440187,0.574984 -0.670989,1.238663 -0.692408,1.991039 -0.02294,0.74741 0.07555,1.48235 0.29547,2.204823 0.283614,0.931755 0.666118,1.705463 1.147512,2.321125 0.484857,0.609171 1.066112,0.998448 1.743765,1.16783 0.677646,0.169388 1.350306,0.152464 2.017982,-0.05077 0.812161,-0.247212 1.428478,-0.690693 1.848956,-1.330445 0.420462,-0.639744 0.590059,-1.450843 0.50879,-2.433299"
           style="font-size:16px;font-variant:normal;font-stretch:normal;letter-spacing:1.11000001px;fill:#008000;font-family:Arial;-inkscape-font-specification:Arial"
           id="path3054" />
        <path
           d="m -64.962608,33.343116 -2.394412,-11.200039 1.482134,-0.316859 2.394412,11.200038 -1.482134,0.31686"
           style="font-size:16px;font-variant:normal;font-stretch:normal;letter-spacing:1.11000001px;fill:#008000;font-family:Arial;-inkscape-font-specification:Arial"
           id="path3056" />
        <path
           d="m -61.028589,29.039026 -0.221316,-1.396636 4.26707,-0.676175 0.221316,1.396636 -4.26707,0.676175"
           style="font-size:16px;font-variant:normal;font-stretch:normal;letter-spacing:1.11000001px;fill:#008000;font-family:Arial;-inkscape-font-specification:Arial"
           id="path3058" />
        <path
           d="m -50.484573,31.119929 -0.843611,-10.066274 -3.760255,0.31513 -0.112873,-1.346841 9.046412,-0.75814 0.112873,1.346841 -3.775826,0.316435 0.84361,10.066275 -1.51033,0.126574"
           style="font-size:16px;font-variant:normal;font-stretch:normal;letter-spacing:1.11000001px;fill:#008000;font-family:Arial;-inkscape-font-specification:Arial"
           id="path3060" />
        <path
           d="m -42.428248,30.595556 0.07183,-11.4529 8.281087,0.05194 -0.0085,1.351536 -6.765492,-0.04243 -0.022,3.507743 6.335813,0.03974 -0.0084,1.343724 -6.335813,-0.03974 -0.02445,3.898361 7.031112,0.0441 -0.0085,1.351536 -8.546707,-0.05361"
           style="font-size:16px;font-variant:normal;font-stretch:normal;letter-spacing:1.11000001px;fill:#008000;font-family:Arial;-inkscape-font-specification:Arial"
           id="path3062" />
        <path
           d="m -22.095175,27.719362 1.464342,0.547145 c -0.452666,1.202311 -1.126625,2.084071 -2.021878,2.645283 -0.889521,0.556607 -1.927015,0.769338 -3.112484,0.638192 -1.226895,-0.135729 -2.198518,-0.494742 -2.914871,-1.077041 -0.710611,-0.586903 -1.215406,-1.376362 -1.514388,-2.368379 -0.293808,-0.99144 -0.380579,-2.030719 -0.260312,-3.117841 0.131145,-1.18547 0.470586,-2.193318 1.018323,-3.02355 0.553482,-0.834818 1.27215,-1.433906 2.156008,-1.797267 0.889598,-0.367944 1.836544,-0.49637 2.84084,-0.385278 1.138877,0.126003 2.064504,0.521849 2.776885,1.187539 0.71236,0.665709 1.163131,1.540893 1.352314,2.625555 l -1.521796,0.185354 c -0.172394,-0.85748 -0.488754,-1.50295 -0.949083,-1.936413 -0.460347,-0.433445 -1.071007,-0.692265 -1.831981,-0.77646 -0.874878,-0.09678 -1.630581,0.03185 -2.267113,0.385867 -0.631366,0.354611 -1.105341,0.873348 -1.421926,1.55621 -0.316021,0.677702 -0.515549,1.391863 -0.598587,2.142485 -0.107096,0.968058 -0.06096,1.829918 0.138411,2.585585 0.205114,0.751069 0.585577,1.33813 1.141392,1.761184 0.555805,0.423056 1.180553,0.672954 1.874243,0.749694 0.843803,0.09335 1.585111,-0.07093 2.223925,-0.492827 0.638797,-0.421899 1.114709,-1.100244 1.427736,-2.035037"
           style="font-size:16px;font-variant:normal;font-stretch:normal;letter-spacing:1.11000001px;fill:#008000;font-family:Arial;-inkscape-font-specification:Arial"
           id="path3064" />
        <path
           d="m -18.035984,32.413986 2.614932,-11.150614 1.475593,0.346041 -1.073798,4.578902 5.7958851,1.359194 1.0737988,-4.578902 1.4755929,0.346041 -2.6149319,11.150615 -1.4755929,-0.346042 1.2325497,-5.255849 -5.7958857,-1.359193 -1.23255,5.255849 -1.475593,-0.346042"
           style="font-size:16px;font-variant:normal;font-stretch:normal;letter-spacing:1.11000001px;fill:#008000;font-family:Arial;-inkscape-font-specification:Arial"
           id="path3066" />
        <path
           d="m 10.963719,29.961051 1.384788,0.61602 -2.6895313,6.045956 c -0.4678475,1.051677 -0.9583324,1.83391 -1.4714561,2.3467 C 7.6743761,39.482513 7.0193201,39.795357 6.2223498,39.90826 5.4322392,40.018515 4.5327639,39.849252 3.523921,39.400471 2.54362,38.964386 1.8169262,38.438753 1.3438376,37.82357 0.87074283,37.208386 0.64278558,36.522686 0.65996511,35.76647 0.67925685,35.005498 0.93552341,34.07062 1.4287655,32.961835 l 2.6895314,-6.045956 1.3847882,0.61602 -2.686356,6.038818 c -0.4043335,0.908919 -0.6195397,1.616944 -0.6456191,2.124078 -0.019211,0.504494 0.1239453,0.964356 0.4294709,1.379587 0.3102758,0.417348 0.7628356,0.758329 1.3576809,1.022943 1.0183599,0.453017 1.8467343,0.545047 2.4851256,0.276091 0.638375,-0.268958 1.2496995,-1.06014 1.8339755,-2.373547 l 2.6863561,-6.038818"
           style="font-size:16px;font-variant:normal;font-stretch:normal;letter-spacing:1.11000001px;fill:#008000;font-family:Arial;-inkscape-font-specification:Arial"
           id="path3068" />
        <path
           d="m 10.911266,42.736035 6.016866,-9.745327 1.322865,0.816751 0.394604,10.811635 4.72402,-7.651344 1.236446,0.763395 -6.016866,9.745327 -1.322865,-0.816751 -0.390499,-10.818283 -4.728124,7.657992 -1.236447,-0.763395"
           style="font-size:16px;font-variant:normal;font-stretch:normal;letter-spacing:1.11000001px;fill:#008000;font-family:Arial;-inkscape-font-specification:Arial"
           id="path3070" />
        <path
           d="m 21.725687,49.843877 6.914782,-9.130162 1.208221,0.915053 -6.914783,9.130162 -1.20822,-0.915053"
           style="font-size:16px;font-variant:normal;font-stretch:normal;letter-spacing:1.11000001px;fill:#008000;font-family:Arial;-inkscape-font-specification:Arial"
           id="path3072" />
        <path
           d="m 28.359622,55.254462 4.388897,-11.471838 1.217022,1.10023 -3.371711,8.168176 c -0.269359,0.655203 -0.539747,1.253303 -0.811164,1.7943 0.550491,-0.344875 1.122237,-0.670537 1.715238,-0.976987 l 7.874695,-4.097324 1.147479,1.03736 -11.007182,5.488682 -1.153274,-1.042599"
           style="font-size:16px;font-variant:normal;font-stretch:normal;letter-spacing:1.11000001px;fill:#008000;font-family:Arial;-inkscape-font-specification:Arial"
           id="path3074" />
        <path
           d="m 34.562249,61.151796 8.578013,-7.588924 5.487216,6.202383 -1.012275,0.895555 -4.482953,-5.06723 -2.627236,2.324302 4.198239,4.745408 -1.006425,0.890379 -4.198238,-4.745408 -2.919801,2.583133 4.658957,5.266174 -1.012276,0.895555 -5.663221,-6.401327"
           style="font-size:16px;font-variant:normal;font-stretch:normal;letter-spacing:1.11000001px;fill:#008000;font-family:Arial;-inkscape-font-specification:Arial"
           id="path3076" />
        <path
           d="m 42.238411,70.104769 9.335418,-6.635062 2.941876,4.139169 c 0.591379,0.832079 0.956052,1.524975 1.094019,2.078688 0.142185,0.550695 0.09305,1.106389 -0.147413,1.667085 -0.240488,0.560691 -0.617566,1.023585 -1.131234,1.388683 -0.662279,0.470696 -1.372909,0.653084 -2.131893,0.547165 -0.759006,-0.105927 -1.518386,-0.563017 -2.278142,-1.37127 0.07525,0.438525 0.09681,0.797007 0.06468,1.075446 -0.07467,0.596196 -0.245694,1.23213 -0.513071,1.907803 l -1.386692,3.429687 -1.104335,-1.55378 1.064188,-2.615802 c 0.303902,-0.759139 0.521466,-1.361058 0.652692,-1.805758 0.131212,-0.444706 0.189875,-0.802696 0.175989,-1.073971 -0.01088,-0.267035 -0.06086,-0.512665 -0.149935,-0.736893 -0.06986,-0.161217 -0.217937,-0.401024 -0.444228,-0.71942 l -1.018342,-1.432789 -4.145537,2.946402 -0.878037,-1.235383 m 6.09339,-2.471381 1.887327,2.655436 c 0.401293,0.564623 0.772404,0.9654 1.113335,1.202333 0.345156,0.23391 0.703936,0.343131 1.076339,0.327662 0.376627,-0.01849 0.715655,-0.134851 1.017083,-0.349077 0.441499,-0.313803 0.689814,-0.733104 0.744946,-1.257905 0.05812,-0.520557 -0.158718,-1.126828 -0.650526,-1.818812 l -2.100047,-2.954729 -3.088457,2.195092"
           style="font-size:16px;font-variant:normal;font-stretch:normal;letter-spacing:1.11000001px;fill:#008000;font-family:Arial;-inkscape-font-specification:Arial"
           id="path3078" />
        <path
           d="m 52.33477,78.260271 0.818493,1.178855 c -0.463656,0.343285 -0.795184,0.712985 -0.994584,1.1091 -0.192299,0.398048 -0.258577,0.88001 -0.198834,1.445888 0.06426,0.563287 0.258045,1.127475 0.581362,1.692565 0.287098,0.501793 0.615168,0.902144 0.984208,1.201053 0.369031,0.298899 0.735412,0.46731 1.099145,0.505233 0.370827,0.03985 0.709947,-0.02817 1.017361,-0.204046 0.311921,-0.178475 0.531433,-0.424079 0.658536,-0.736813 0.131608,-0.315331 0.157548,-0.72621 0.07782,-1.232638 -0.04864,-0.326214 -0.22569,-1.007986 -0.531164,-2.045316 -0.300968,-1.039921 -0.459006,-1.798578 -0.474117,-2.275975 -0.02295,-0.61693 0.08141,-1.147687 0.313099,-1.592272 0.238778,-0.442646 0.586466,-0.79459 1.043064,-1.05583 0.501789,-0.287099 1.051156,-0.4124 1.648102,-0.375905 0.601447,0.03392 1.171677,0.259712 1.71069,0.677387 0.538991,0.417682 0.999893,0.961052 1.382709,1.630114 0.421588,0.736874 0.672953,1.454136 0.754096,2.151787 0.08822,0.699584 -0.01157,1.332732 -0.299366,1.899445 -0.287828,0.566707 -0.716854,1.028194 -1.287079,1.384461 l -0.816571,-1.206958 c 0.589568,-0.427338 0.932329,-0.929477 1.028284,-1.506417 0.09852,-0.572423 -0.07078,-1.240633 -0.507885,-2.00463 -0.455237,-0.795642 -0.934525,-1.292489 -1.437867,-1.490545 -0.496255,-0.196117 -0.950069,-0.17649 -1.361444,0.05888 -0.357143,0.204336 -0.577273,0.501299 -0.660389,0.890889 -0.08572,0.385072 0.05457,1.180884 0.420881,2.387441 0.373397,1.208487 0.583492,2.063373 0.630286,2.564658 0.06434,0.731248 -0.03028,1.352442 -0.283882,1.863582 -0.249094,0.508542 -0.640358,0.91542 -1.173792,1.220635 -0.528929,0.302614 -1.115113,0.43698 -1.758555,0.403097 -0.638934,-0.03648 -1.252447,-0.264516 -1.840543,-0.6841 -0.580997,-0.417662 -1.074534,-0.981364 -1.480613,-1.691108 -0.514718,-0.899623 -0.815564,-1.729588 -0.902541,-2.489896 -0.08439,-0.755793 0.03603,-1.457752 0.361272,-2.10588 0.332345,-0.646194 0.825616,-1.168441 1.479816,-1.566741"
           style="font-size:16px;font-variant:normal;font-stretch:normal;letter-spacing:1.11000001px;fill:#008000;font-family:Arial;-inkscape-font-specification:Arial"
           id="path3080" />
        <path
           d="m 55.17206,91.115046 10.296315,-5.015972 0.663778,1.362541 -10.296315,5.015972 -0.663778,-1.362541"
           style="font-size:16px;font-variant:normal;font-stretch:normal;letter-spacing:1.11000001px;fill:#008000;font-family:Arial;-inkscape-font-specification:Arial"
           id="path3082" />
        <path
           d="m 58.575713,98.581018 9.343518,-3.839301 -1.434171,-3.49027 1.250138,-0.513689 3.450324,8.396882 -1.250138,0.513688 -1.44011,-3.504722 -9.343518,3.839301 -0.576043,-1.401889"
           style="font-size:16px;font-variant:normal;font-stretch:normal;letter-spacing:1.11000001px;fill:#008000;font-family:Arial;-inkscape-font-specification:Arial"
           id="path3084" />
        <path
           d="m 62.435243,109.17007 4.657019,-1.36008 5.099409,-6.08774 0.516876,1.76981 -2.681703,3.13533 c -0.503136,0.58101 -1.014294,1.13452 -1.533475,1.66054 0.6713,0.16205 1.43554,0.37293 2.292724,0.63263 l 3.85417,1.18582 0.494975,1.69483 -7.618086,-2.53637 -4.657019,1.36008 -0.42489,-1.45485"
           style="font-size:16px;font-variant:normal;font-stretch:normal;letter-spacing:1.11000001px;fill:#008000;font-family:Arial;-inkscape-font-specification:Arial"
           id="path3086" />
      </g>
      <path
         sodipodi:nodetypes="czc"
         inkscape:connector-curvature="0"
         id="path3951"
         d="m -145.31923,113.22456 c -0.16452,-9.59575 25.71619,-83.210801 107.235106,-82.601702 81.51892,0.609098 101.22223,81.048082 101.22223,81.048082"
         style="fill:none;stroke:none" />
      <g
         style="font-size:33.31248474px;font-style:normal;font-weight:normal;line-height:125%;letter-spacing:0px;word-spacing:0px;fill:#008000;fill-opacity:1;stroke:none;font-family:Bitstream Vera Sans"
         id="text3958">
        <path
           d="m -122.19366,214.97801 c 1.32074,0.61888 2.15386,1.10628 2.49935,1.4622 0.34543,0.3559 0.54195,0.89958 0.58954,1.63106 0.0476,0.73145 -0.0473,1.21234 -0.28455,1.44266 -0.28179,0.27348 -0.57403,0.26913 -0.87672,-0.013 -0.56184,-0.54914 -1.35657,-1.1602 -2.3842,-1.83317 -0.56093,0.37163 -1.23437,0.9389 -2.02031,1.70181 l -2.31406,2.28935 c -1.2012,1.16593 -2.54895,2.35892 -4.04323,3.57897 -1.49431,1.22002 -2.38867,1.90092 -2.68307,2.04271 -0.29443,0.14175 -0.49201,0.16073 -0.59276,0.0569 -0.59018,-0.60803 2.61319,-4.22142 9.61012,-10.84019 -0.98797,-0.39471 -2.16806,-0.64613 -3.54025,-0.75424 -0.35375,0.19933 -1.34602,1.07608 -2.97682,2.63024 -0.57836,0.56137 -1.10504,0.59737 -1.58004,0.10801 -0.34548,-0.35592 0.0392,-1.16133 1.15404,-2.41624 0.25252,-0.27393 0.42632,-0.65865 0.52141,-1.15414 0.095,-0.49551 0.39425,-0.95874 0.8976,-1.38969 -0.041,-0.19061 0.005,-0.35069 0.13869,-0.48023 0.35589,-0.34547 1.12967,-0.29011 2.32134,0.1661 1.03543,-0.83227 1.70145,-1.39234 1.99806,-1.68022 0.29657,-0.28789 0.4754,-0.51907 0.53648,-0.69354 0.0754,-0.15965 0.0493,-0.36465 -0.0785,-0.61501 -2.44869,0.53353 -3.83441,0.84173 -4.15716,0.92462 -0.69527,0.55964 -1.53226,1.31447 -2.51099,2.2645 -0.97876,0.95002 -1.74335,1.74977 -2.29377,2.39927 -0.52122,0.64991 -1.0191,1.20518 -1.49363,1.66581 -0.45973,0.44621 -0.83723,0.76943 -1.1325,0.96966 -0.31012,0.21459 -0.52996,0.25517 -0.6595,0.12171 -0.12955,-0.13348 -0.16206,-0.40434 -0.0975,-0.81259 0.54902,-3.49947 0.65952,-5.52202 0.3315,-6.06766 -0.11385,-0.20632 -0.13916,-0.46977 -0.0759,-0.79035 0.0776,-0.30577 0.22024,-0.55941 0.42786,-0.76093 0.20761,-0.20152 0.46451,-0.27808 0.77072,-0.22967 0.30619,0.0484 0.7524,0.0185 1.33862,-0.0897 0.6006,-0.0934 1.33185,-0.12632 2.19375,-0.0989 0.89109,0.0279 1.64983,0.11225 2.2762,0.25312 0.74058,-0.66127 1.2956,-1.128 1.66505,-1.40018 -0.93474,-0.0431 -1.98789,0.0142 -3.15944,0.17218 -0.42485,0.0667 -0.8028,-0.0704 -1.13385,-0.4115 -0.17275,-0.17795 -0.3156,-0.39931 -0.42857,-0.66406 l -1.72591,1.07044 c -0.60454,0.35637 -1.0913,0.65604 -1.46029,0.89901 -0.36901,0.24296 -0.66451,0.45778 -0.88651,0.64448 -0.19279,0.18712 -0.50421,0.4894 -0.93426,0.90684 -0.43006,0.41743 -0.74104,0.69049 -0.93295,0.81917 -0.56048,0.34241 -1.01126,0.67916 -1.35233,1.01023 -0.34108,0.33107 -0.54891,0.5472 -0.62349,0.6484 -0.0602,0.11602 -0.11995,0.20282 -0.17926,0.2604 -0.25211,0.2447 -0.5149,0.22617 -0.78839,-0.0556 -0.2735,-0.28177 -0.36381,-1.08695 -0.27095,-2.41554 0.0924,-1.29937 1.00616,-2.79113 2.74121,-4.47526 0.53386,-0.5182 1.08953,-1.02876 1.66702,-1.53169 0.59186,-0.4881 0.94712,-0.78973 1.06576,-0.90489 0.43005,-0.41743 0.66252,-0.81589 0.69741,-1.19536 0.0641,-0.37904 0.1716,-0.7282 0.32252,-1.04749 0.16529,-0.30445 0.54453,-0.74457 1.13772,-1.32035 0.60799,-0.59016 1.35929,-0.9882 2.2539,-1.19411 0.90897,-0.19107 1.734,-0.14224 2.47509,0.14647 0.30487,0.13609 0.64727,0.20695 1.0272,0.2126 0.39472,-0.009 0.62916,-0.0491 0.70333,-0.12106 0.089,-0.0864 0.15765,-0.28264 0.20607,-0.58885 0.0632,-0.32058 0.25927,-0.72688 0.58815,-1.21891 0.35806,-0.49158 0.59642,-0.79494 0.71508,-0.91011 0.11861,-0.11514 0.20672,-0.14306 0.26432,-0.0838 0.0719,0.0742 0.10619,0.22812 0.10273,0.4619 -0.004,0.2338 0.1651,0.68938 0.50579,1.36675 0.34066,0.67737 0.42378,1.47514 0.24936,2.39329 -0.16006,0.93299 -0.42545,1.57941 -0.79617,1.93927 -0.20763,0.20152 -0.45778,0.31472 -0.75043,0.33958 -0.27786,0.0105 -0.51733,-0.10269 -0.7184,-0.33953 l -0.28003,-0.33302 c -0.3167,-0.32624 -0.63533,-0.52098 -0.9559,-0.58422 -0.32061,-0.0632 -0.56008,-0.17641 -0.7184,-0.33954 -0.15835,-0.16312 -0.2216,-0.33213 -0.18975,-0.50705 0.0318,-0.1749 -0.01,-0.32167 -0.12498,-0.44031 -0.10078,-0.1038 -0.29597,-0.24555 -0.58558,-0.42526 -0.27525,-0.16485 -0.47088,-0.27738 -0.58689,-0.33758 -0.11604,-0.0602 -0.23272,-0.0765 -0.35003,-0.0491 -0.0881,0.0279 -0.2434,0.14984 -0.46583,0.36575 -0.22245,0.21592 -0.42374,0.4833 -0.60386,0.80215 -0.15092,0.31929 -0.27521,0.81435 -0.37288,1.48519 -0.0833,0.68567 -0.51792,1.40996 -1.30387,2.17286 -0.77115,0.7485 -1.84063,1.41218 -3.20845,1.99104 -1.33861,0.57928 -2.07464,0.9337 -2.2081,1.06325 -0.11865,0.11515 -0.26236,0.44186 -0.43113,0.9801 -0.15396,0.52386 -0.2475,0.91707 -0.28064,1.17965 0.7162,-0.004 1.97389,-0.5479 3.77309,-1.63186 1.81357,-1.06913 2.83159,-1.71166 3.05404,-1.92757 -0.14221,-0.26519 -0.0576,-0.54893 0.25383,-0.85121 0.32623,-0.31667 0.67866,-0.42835 1.05728,-0.33502 0.91683,0.26211 1.68887,0.43438 2.31611,0.51679 0.62721,0.0824 1.96998,0.20472 4.02832,0.3669 2.02684,-1.65055 3.2108,-2.64137 3.5519,-2.97244 0.35589,-0.34546 0.54169,-0.55461 0.55741,-0.62746 0.0449,-0.0724 0.0242,-0.1531 -0.0622,-0.24208 -0.0864,-0.089 -0.12848,-0.20652 -0.12628,-0.35264 0.017,-0.16051 0.0848,-0.29834 0.20346,-0.4135 0.11861,-0.11515 0.30987,-0.2 0.57378,-0.25453 0.26386,-0.0545 0.48217,0.007 0.65492,0.18513 0.18711,0.19279 0.28373,0.57422 0.28988,1.1443 0.0209,0.55569 -0.10358,1.06537 -0.37353,1.52903 -0.24078,0.4641 -0.45755,0.78972 -0.6503,0.97684 -0.19281,0.18713 -0.34809,0.30904 -0.46583,0.36575 -0.27917,0.0982 -0.85535,0.51341 -1.72852,1.24578 0.12996,0.10424 0.27412,0.23792 0.43248,0.40105 0.15831,0.16312 0.24294,0.369 0.25388,0.61762 0.0257,0.23422 -0.0233,0.58425 -0.14718,1.0501 1.58546,-0.47331 2.81045,-0.78391 3.67498,-0.9318 0.89369,-0.14746 1.55907,-0.17409 1.99615,-0.0799 0.43703,0.0942 0.7995,0.28959 1.08741,0.58618 0.30225,0.31142 0.47042,0.79622 0.50449,1.45441 0.0488,0.6438 -0.23814,1.26797 -0.86095,1.87254 -0.8898,0.86365 -1.8557,0.95158 -2.89773,0.26377 -0.47765,-0.31404 -1.64007,-0.7698 -3.48727,-1.36729 0.0174,0.78947 -0.18143,1.38573 -0.59663,1.78878 -0.40042,0.38864 -0.91706,0.73171 -1.54992,1.02921 0.36332,0.13694 0.68347,0.2294 0.96047,0.27737 0.0475,-0.24775 0.12318,-0.42201 0.22701,-0.52276 0.29657,-0.2879 0.99839,0.18293 2.10547,1.41248 m -0.64202,-5.46832 c 0.49417,0.18274 1.33316,0.27561 2.51697,0.27863 1.19815,0.0178 1.8788,-0.0524 2.04195,-0.21074 0.17793,-0.17274 0.20213,-0.32584 0.0726,-0.4593 -0.28792,-0.29659 -1.0907,-0.36701 -2.40836,-0.21124 -1.30331,0.17058 -2.04437,0.37147 -2.22317,0.60265 m -2.48422,0.46723 0.0778,-0.80998 c -0.26085,-0.15004 -0.58058,-0.27172 -0.95916,-0.36505 -0.97441,0.65779 -1.70543,1.16574 -2.19304,1.52386 0.58533,-0.0497 1.61012,-0.16602 3.07438,-0.34883 m -5.2614,5.88464 c 0.34237,-0.41875 0.65444,-0.76487 0.93622,-1.03835 0.0366,-0.49638 0.005,-0.79647 -0.0962,-0.90027 -0.0864,-0.089 -0.17318,-0.14873 -0.2604,-0.17926 -0.4449,0.43183 -0.7356,0.8148 -0.8721,1.14892 -0.1217,0.31972 -0.0242,0.6427 0.29249,0.96896 m -5.44884,-3.6107 c 0.0982,1.25836 0.26962,2.01359 0.51433,2.2657 0.15833,0.16312 0.35635,0.11491 0.59407,-0.14461 0.23769,-0.25954 0.76414,-0.77054 1.57934,-1.533 l 1.13446,-1.10117 c -2.29561,0.0681 -3.56967,0.23915 -3.8222,0.51308"
           style="font-size:31px;font-variant:normal;font-stretch:normal;letter-spacing:11.85999966px;fill:#008000;font-family:'华文行楷';-inkscape-font-specification:'华文行楷'"
           id="path3022" />
        <path
           d="m -99.177737,223.12665 c 0.271502,0.14961 0.770958,0.61354 1.498369,1.39182 0.737349,0.7602 1.230725,1.49214 1.480129,2.19582 0.249366,0.70371 0.229453,1.31802 -0.05974,1.84295 -0.28923,0.52494 -0.677452,0.86555 -1.164665,1.02183 -0.477275,0.13819 -0.876971,0.0713 -1.199087,-0.20052 -0.124881,-0.11598 -0.30497,-0.23879 -0.54027,-0.36845 -0.235332,-0.12964 -0.555791,-0.21181 -0.96138,-0.24652 -0.13854,-0.006 -0.33451,-0.0781 -0.58791,-0.21773 -0.23533,-0.12964 -0.58056,-0.40242 -1.03567,-0.81835 -0.43703,-0.40594 -0.64059,-0.63606 -0.61066,-0.69038 0.0399,-0.0724 0.19429,-0.1171 0.46323,-0.13411 1.12,-0.02 1.78473,-0.22007 1.994174,-0.60021 0.07977,-0.1448 0.09121,-0.31546 0.03433,-0.51199 -0.05691,-0.19651 -0.109577,-0.61485 -0.15799,-1.25503 -0.0303,-0.63019 0.0193,-1.06294 0.148981,-1.29827 0.139604,-0.2534 0.372324,-0.29036 0.698162,-0.11086 m 7.403287,18.55479 c 1.120064,1.13621 1.736835,2.1367 1.850315,3.00146 0.141503,0.85663 0.132485,1.42976 -0.02705,1.71938 -0.15959,0.28961 -0.374756,0.46601 -0.645499,0.52921 -0.260819,0.0451 -0.499823,0.008 -0.717014,-0.11189 -0.217238,-0.11968 -0.392341,-0.25155 -0.52531,-0.3956 -1.795045,-1.83842 -3.362301,-3.12661 -4.701771,-3.8646 -0.669763,-0.369 -1.65645,-0.67665 -2.960063,-0.92296 -1.293673,-0.26443 -2.148293,-0.40494 -2.563853,-0.42153 -0.41559,-0.0166 -0.68673,-0.0598 -0.81343,-0.12961 -0.34393,-0.18949 -0.51924,-0.66361 -0.52592,-1.42235 0.0214,-0.76688 0.0919,-1.25893 0.21158,-1.47614 0.11966,-0.21722 0.23565,-0.34208 0.34796,-0.3746 0.14036,-0.0406 0.3101,-0.006 0.50922,0.10359 l 0.27152,0.14959 c 0.34391,0.18949 0.61727,0.2929 0.82009,0.31026 0.75505,0.0856 1.391901,0.23596 1.910568,0.45093 0.219043,0.0735 0.872498,-0.19177 1.960367,-0.7958 1.105935,-0.59406 1.708775,-0.9816 1.808523,-1.16261 0.06979,-0.12671 -0.01204,-0.27797 -0.245492,-0.4538 -0.21539,-0.16584 -0.405828,-0.37695 -0.571315,-0.6333 -0.147424,-0.24638 -0.298346,-0.63628 -0.452767,-1.16969 -0.154458,-0.5334 -0.42174,-0.90482 -0.801848,-1.11425 -0.253434,-0.13961 -0.524577,-0.18282 -0.813428,-0.12961 0.672258,-0.62063 1.166866,-0.96161 1.483827,-1.02296 0.326897,-0.0794 0.858287,0.0482 1.594172,0.3828 0.763919,0.32651 1.380829,0.51302 1.850731,0.55954 0.469859,0.0465 1.081954,0.006 1.836287,-0.1209 0.316919,-0.0613 0.674503,0.0177 1.072754,0.23709 0.66972,0.369 1.175835,1.01358 1.518348,1.93373 0.352432,0.90206 0.394029,1.59746 0.12479,2.08619 -0.269292,0.48873 -0.681899,0.74512 -1.237821,0.76916 -0.555971,0.024 -1.18265,0.19788 -1.880038,0.52152 -0.68746,0.30553 -1.734123,0.92046 -3.139991,1.84478 1.433664,0.6955 2.328376,1.10585 2.684138,1.23106 0.365691,0.1071 0.621499,0.0711 0.767425,-0.10809 m -9.614,-5.93389 c -0.35903,0.65164 -1.26567,1.69765 -2.71991,3.13803 -1.43616,1.45035 -2.50977,2.39256 -3.22083,2.82665 -0.69298,0.44406 -1.10337,0.76066 -1.23116,0.9498 -0.2438,0.314 -0.50145,0.39621 -0.77296,0.24662 -0.27153,-0.1496 -0.51794,-0.5803 -0.73925,-1.29212 -0.23128,-0.69373 -0.31093,-1.36289 -0.23893,-2.0075 0.082,-0.66271 0.19775,-1.12982 0.34735,-1.40134 0.15956,-0.28962 0.29641,-0.47378 0.41056,-0.55246 0.30436,-0.20984 0.81909,-0.82289 1.54417,-1.83915 0.75315,-1.02439 1.2095,-1.6814 1.36908,-1.97102 0.16953,-0.30772 0.19371,-0.56575 0.0725,-0.77409 -0.38163,-0.63497 -0.4694,-1.33221 -0.26331,-2.09171 0.20607,-0.7595 0.46369,-1.41982 0.77286,-1.98096 0.31912,-0.57923 0.76718,-1.02845 1.34417,-1.34765 0.58695,-0.33729 0.91663,-0.48599 0.98905,-0.44611 0.0905,0.0499 0.0999,0.16125 0.0283,0.33412 -0.31286,0.6535 -0.47536,1.24824 -0.48751,1.78424 0.0159,0.52788 0.14411,1.02324 0.38463,1.48608 0.25046,0.44475 0.33749,0.92921 0.26106,1.45339 -0.0484,0.51606 -0.20719,1.01845 -0.47644,1.50718 -0.25931,0.47064 -0.54022,0.78778 -0.84274,0.95144 -0.30254,0.16367 -1.02635,0.68512 -2.17143,1.56435 -1.11703,0.87112 -1.73538,1.41528 -1.85505,1.63249 -0.1097,0.19911 -0.1289,0.44809 -0.0576,0.74694 0.0713,0.29883 0.14316,0.4682 0.21557,0.50809 0.25341,0.13962 1.21661,-0.23814 2.88958,-1.1333 1.68293,-0.91325 2.91853,-1.74262 3.7068,-2.48812 0.29808,-0.28409 0.53763,-0.37626 0.71866,-0.27654 0.14479,0.0798 0.15237,0.23733 0.0227,0.47265"
           style="font-size:31px;font-variant:normal;font-stretch:normal;letter-spacing:11.85999966px;fill:#008000;font-family:'华文行楷';-inkscape-font-specification:'华文行楷'"
           id="path3024" />
        <path
           d="m -58.512749,242.91343 c 0.755798,-0.85522 1.735939,-1.43056 2.940429,-1.72601 1.228327,-0.31227 2.50438,-0.35416 3.828162,-0.12569 1.344098,0.23203 2.416744,0.7003 3.217942,1.40482 0.801142,0.70456 1.136695,1.43359 1.00666,2.1871 -0.04924,0.28513 -0.212587,0.62395 -0.490033,1.01646 -0.273988,0.37217 -0.629105,0.9715 -1.065349,1.79799 -1.147259,2.15088 -2.265164,3.34209 -3.353719,3.57363 -0.82882,0.54904 -1.443414,1.07212 -1.843786,1.56926 0.841993,0.10339 1.398835,0.46166 1.670526,1.0748 0.295524,0.5963 0.423964,1.00645 0.385321,1.23047 -0.03518,0.20366 -0.268711,0.34161 -0.700604,0.41387 -0.323083,0.0491 -1.120604,0.47769 -2.392566,1.28577 0.0028,0.10535 -0.01657,0.21736 -0.058,0.33604 0.665009,0.15673 1.323735,0.22849 1.97618,0.21527 0.676279,-0.0301 1.065344,-0.0363 1.167196,-0.0188 0.590575,0.10195 1.035407,0.44088 1.334496,1.01681 0.319403,0.57944 0.440449,1.09318 0.36314,1.54123 -0.07736,0.44803 -0.319684,0.6369 -0.726969,0.5666 -0.407335,-0.0703 -0.916109,-0.22104 -1.526324,-0.45221 -0.586382,-0.24802 -1.195226,-0.42651 -1.826535,-0.53548 -1.445972,-0.24958 -3.105817,-0.23199 -4.97954,0.0528 -0.904581,0.13747 -1.489239,0.18336 -1.753975,0.13766 -0.264766,-0.0457 -0.487335,-0.33578 -0.667706,-0.87025 -0.156519,-0.55132 -0.21368,-0.94917 -0.171483,-1.19356 0.09841,-0.57023 0.657126,-0.83032 1.676143,-0.78027 0.353228,0.019 0.781629,-0.0329 1.285206,-0.15566 0.507056,-0.14317 0.881754,-0.30919 1.124096,-0.49806 -0.762636,-0.32039 -1.372149,-0.67726 -1.828541,-1.07062 -0.45291,-0.41373 -0.660023,-0.73261 -0.621339,-0.95663 0.07029,-0.40731 0.33334,-0.65551 0.789154,-0.74462 0.891212,-0.18172 1.84499,-0.60431 2.861336,-1.26778 0.09695,-0.31881 0.0538,-0.49404 -0.129472,-0.52568 -0.183309,-0.0316 -0.446666,-0.0247 -0.790071,0.0209 -0.319563,0.0287 -0.540431,0.0325 -0.662605,0.0115 -0.549887,-0.0949 -0.781912,-0.51246 -0.696077,-1.25265 0.02531,-0.26826 0.005,-0.57587 -0.06093,-0.92281 -0.04209,-0.36379 -0.140703,-0.64296 -0.295853,-0.83753 -0.131304,-0.2114 -0.224955,-0.76236 -0.280953,-1.65287 -0.03215,-0.90735 -0.0067,-1.78379 0.07634,-2.62933 0.08653,-0.86589 0.08452,-1.40103 -0.006,-1.60542 -0.08706,-0.22473 -0.121789,-0.38802 -0.104196,-0.48986 0.01756,-0.10181 0.07726,-0.14394 0.179105,-0.12638 0.244369,0.0422 0.628104,0.37059 1.151206,0.98517 m 4.802498,5.89375 c 0.35322,0.019 0.681189,0.002 0.983906,-0.0504 0.302669,-0.0526 0.526384,-0.25517 0.671145,-0.6077 l 1.02116,-2.08874 c 0.515646,-1.04348 0.852517,-1.71937 1.010615,-2.02765 0.17841,-0.30474 0.283447,-0.54877 0.315112,-0.73207 0.05622,-0.32583 -0.07859,-0.51688 -0.404407,-0.57314 -0.529529,-0.0914 -1.560833,-0.0701 -3.093915,0.0637 0.04205,0.3638 0.01914,0.80027 -0.06872,1.30939 0.450807,0.18269 0.785385,0.49211 1.003737,0.92826 0.221818,0.4158 0.304617,0.78662 0.248398,1.11246 -0.05275,0.30549 -0.144092,0.5309 -0.274017,0.67624 -0.649772,0.72675 -1.055076,1.19158 -1.215913,1.39451 -0.140519,0.20645 -0.206219,0.40483 -0.197102,0.59514 m -1.523459,-4.47839 c 0.153197,-0.64465 0.109734,-1.06111 -0.130389,-1.24938 -0.957926,-0.0395 -1.663019,-0.0249 -2.115282,0.0438 -0.452301,0.0688 -0.73887,0.27096 -0.859707,0.60661 0.03223,0.29919 0.01211,0.841 -0.06035,1.62542 1.283123,-0.3867 2.338365,-0.72886 3.16573,-1.02649 m -0.665299,3.12538 c -0.79076,-0.15745 -1.639386,-0.58705 -2.54588,-1.28881 0.0062,0.69316 0.04043,1.52748 0.102763,2.50295 0.410807,0.0499 1.225178,-0.35476 2.443117,-1.21414 m -7.877041,3.17038 c 0.862483,-0.50126 1.415924,-0.73081 1.660324,-0.68863 0.244372,0.0422 0.322624,0.31785 0.234758,0.82698 -0.0879,0.50914 -0.582418,1.12636 -1.483569,1.85164 -0.897661,0.70492 -2.01933,1.37118 -3.365009,1.99876 -0.620183,0.3124 -1.0841,0.6308 -1.391752,0.95519 -0.441133,0.49011 -0.885716,0.6965 -1.33375,0.61917 -0.427682,-0.0738 -0.683951,-0.41167 -0.768808,-1.01354 -0.08487,-0.60187 -0.08336,-1.15738 0.0045,-1.66652 0.07381,-0.42767 0.297892,-0.69309 0.672234,-0.79626 0.374328,-0.10316 0.696355,-0.26778 0.966082,-0.49387 0.290076,-0.22257 0.804601,-0.77341 1.543576,-1.65253 -0.821545,-0.70805 -1.214737,-1.1639 -1.179576,-1.36757 0.01757,-0.10182 0.128183,-0.13515 0.331847,-0.10001 0.203646,0.0352 0.413969,0.0924 0.630968,0.17183 0.240861,0.0625 0.422393,0.10437 0.544596,0.12546 0.346204,0.0598 0.554463,-0.11401 0.624778,-0.52133 -1.045681,-0.13854 -1.932975,-0.34412 -2.661883,-0.61675 -0.705044,-0.28947 -1.031198,-0.58694 -0.978462,-0.89244 0.05272,-0.30547 0.341411,-0.58071 0.866069,-0.82572 0.548524,-0.26183 1.079841,-0.48471 1.593955,-0.66862 0.517611,-0.20426 1.197428,-0.25469 2.039456,-0.15131 0.23891,-0.77667 0.449041,-1.5688 0.630394,-2.3764 -0.292159,-0.008 -0.519695,-0.0268 -0.682607,-0.0549 -0.448053,-0.0773 -0.952223,-0.43698 -1.512512,-1.07899 -0.536429,-0.65882 -0.794093,-1.04934 -0.772992,-1.17155 0.0246,-0.14254 0.06921,-0.21873 0.133828,-0.22857 0.06812,-0.0302 0.142912,-0.0382 0.224384,-0.0242 l 0.244386,0.0422 c 0.448031,0.0773 0.952984,0.007 1.514862,-0.2104 0.561854,-0.21759 1.112506,-0.55247 1.651956,-1.00465 0.194548,-0.15515 0.526032,-0.19231 0.994452,-0.11148 0.468393,0.0809 0.805818,0.19154 1.012277,0.33202 0.206429,0.14051 0.387904,0.48642 0.544424,1.03772 0.176855,0.55485 0.230138,1.03593 0.159848,1.44322 -0.07032,0.40733 -0.241058,0.84973 -0.512213,1.32722 -0.75522,1.33772 -1.2084,2.44443 -1.359542,3.32013 -0.0668,0.38696 -0.0651,0.68086 0.0051,0.88172 0.07369,0.18051 0.08418,0.4235 0.03147,0.72897 -0.04923,0.28513 -0.335185,0.9698 -0.857874,2.05402"
           style="font-size:31px;font-variant:normal;font-stretch:normal;letter-spacing:11.85999966px;fill:#008000;font-family:'华文行楷';-inkscape-font-specification:'华文行楷'"
           id="path3026" />
        <path
           d="m -12.549607,251.63898 c 0.215092,0.15139 0.453667,0.25675 0.715724,0.31606 0.278834,0.0354 0.841417,0.0739 1.68775,0.11558 0.8631058,0.0177 1.5938802,0.29972 2.1923254,0.84594 0.5983929,0.54624 0.9453975,1.09422 1.0410149,1.64397 0.042457,0.24434 0.020318,0.47893 -0.066418,0.70378 -0.090331,0.2045 -0.2372879,0.32445 -0.4408726,0.35984 -0.183277,0.0319 -0.75914,0.0376 -1.7275908,0.0172 -0.94814,-0.0239 -1.597477,-0.0788 -1.948015,-0.16472 -1.531514,-0.363 -3.142247,-0.39758 -4.832204,-0.10374 -1.669631,0.29032 -3.611917,0.94269 -5.826863,1.95713 -2.19461,1.0109 -3.813785,1.95321 -4.85753,2.82692 -0.331104,0.26734 -0.629,0.42402 -0.893688,0.47005 -0.549757,0.0956 -1.155265,-0.25012 -1.816525,-1.03715 -0.66127,-0.78701 -1.030846,-1.4045 -1.108731,-1.85244 -0.07789,-0.44795 0.117317,-0.71263 0.585628,-0.79407 0.142523,-0.0248 0.332854,-0.0159 0.570993,0.0266 0.25495,0.0186 0.494414,0.008 0.718392,-0.0305 0.529384,-0.092 2.318962,-0.71786 5.368738,-1.87746 0.577197,-0.54087 0.984884,-1.27253 1.223062,-2.19497 0.238154,-0.92243 0.298821,-1.7196 0.182,-2.39153 -0.120385,-0.69227 -0.307159,-1.16324 -0.560324,-1.4129 -0.870223,-0.0584 -1.816111,-0.49181 -2.837667,-1.3001 -1.004754,-0.83217 -1.546071,-1.47223 -1.623952,-1.92019 -0.04603,-0.26468 0.04294,-0.4165 0.266922,-0.45546 0.101798,-0.0177 0.220865,0.004 0.357201,0.0637 0.361175,0.14698 0.928627,0.1532 1.70236,0.0187 0.794075,-0.13806 1.62933,-0.4616 2.505768,-0.97061 0.893235,-0.53288 1.551447,-1.15077 1.97464,-1.85368 0.131011,-0.21155 0.389955,-0.35097 0.776831,-0.41826 0.386847,-0.0673 0.984842,-0.0663 1.793985,0.003 0.809111,0.0691 1.458,0.30238 1.94667,0.69986 0.485093,0.37716 0.770133,0.81006 0.855121,1.29871 0.03893,0.22399 0.01192,0.4909 -0.08103,0.80072 -0.07616,0.28595 -0.170005,0.47008 -0.281531,0.55239 -0.09475,0.0584 -0.36608,0.1266 -0.814006,0.20447 -0.631214,0.10977 -1.219036,0.34833 -1.763467,0.71568 -0.544465,0.36738 -0.955236,0.65906 -1.232315,0.87504 -0.280649,0.19565 -0.405035,0.38509 -0.373157,0.56833 0.02831,0.1629 0.311586,0.34439 0.849835,0.54446 0.289461,0.0965 0.483765,0.42982 0.582912,0.99992 0.09557,0.54977 0.08671,0.98133 -0.0266,1.2947 -0.40019,1.07648 -0.694129,2.04007 -0.881817,2.8908 1.624454,-0.42929 3.015211,-0.75502 4.172276,-0.9772 1.157024,-0.22215 1.782909,-0.36244 1.877656,-0.42088 0.111524,-0.0823 0.156676,-0.18456 0.135455,-0.30674 -0.02126,-0.12215 -0.05092,-0.23237 -0.08896,-0.33064"
           style="font-size:31px;font-variant:normal;font-stretch:normal;letter-spacing:11.85999966px;fill:#008000;font-family:'华文行楷';-inkscape-font-specification:'华文行楷'"
           id="path3028" />
        <path
           d="m 16.043558,229.92953 c 0.597226,0.19595 1.123577,0.17196 1.579057,-0.072 0.455461,-0.24389 0.846518,-0.47675 1.173174,-0.69858 0.316878,-0.24 0.566416,-0.40879 0.748616,-0.50638 0.58299,-0.31218 1.157826,-0.42074 1.72451,-0.32568 0.584877,0.0854 1.009031,0.37396 1.272466,0.86585 0.126817,0.23687 0.169077,0.42523 0.126779,0.56508 -0.02411,0.13014 -0.283106,0.45638 -0.776994,0.97873 -0.916235,0.95953 -1.729072,2.3091 -2.438512,4.04871 -0.719219,1.72143 -1.09262,3.41004 -1.120202,5.06584 0.917463,3.37686 1.146121,5.59875 0.685975,6.66568 -0.460168,1.06694 -1.847141,2.21993 -4.160923,3.45898 -0.929166,0.49757 -1.501065,0.54595 -1.715698,0.14513 -0.126837,-0.23684 -0.125788,-0.69455 0.0031,-1.37312 0.128926,-0.67857 0.275376,-1.06176 0.439351,-1.14957 0.182183,-0.0976 0.307424,-0.0826 0.375724,0.045 0.06829,0.12754 0.113485,0.25572 0.135591,0.38454 0.04031,0.11907 0.0995,0.25148 0.177555,0.39723 0.07804,0.14575 0.189944,0.1796 0.335701,0.10155 0.145744,-0.078 0.447701,-0.52107 0.905872,-1.32906 0.476375,-0.81774 0.745532,-1.60657 0.807471,-2.36649 0.06192,-0.7599 -0.03518,-1.75113 -0.291321,-2.97369 -1.753489,0.4467 -3.074894,0.47447 -3.964218,0.0833 -0.88087,-0.41913 -1.374963,-0.7289 -1.482279,-0.92932 -0.107322,-0.20039 -0.06078,-0.35425 0.139632,-0.46159 1.501108,-0.87417 2.817252,-2.57532 3.948437,-5.10344 -0.32574,-1.39626 -0.897968,-3.34039 -1.716686,-5.8324 -1.442961,-0.68076 -2.29127,-1.25799 -2.544931,-1.7317 -0.292692,-0.54654 -0.129316,-0.98568 0.490126,-1.31742 0.455468,-0.24388 1.181579,-0.39829 2.178338,-0.46321 1.014967,-0.0746 1.722457,0.26152 2.122473,1.00847 0.146337,0.27331 0.426926,1.21316 0.841767,2.81958 m -3.499478,-1.1502 c -0.274475,-0.5563 -0.502804,-0.78568 -0.684988,-0.68814 -0.0911,0.0488 -0.09274,0.15518 -0.0049,0.31913 0.0878,0.16399 0.317775,0.28699 0.689919,0.36901 m 4.855869,2.04144 c -0.401417,-0.13668 -0.795359,-0.17187 -1.181827,-0.10559 0.112486,0.3852 0.231799,0.84878 0.35794,1.39075 0.122348,-0.25305 0.396977,-0.68144 0.823887,-1.28516 m 4.855808,8.47668 c 0.473674,-0.25365 1.432399,-0.5209 2.876178,-0.80174 1.433988,-0.29904 2.563151,-0.42313 3.387493,-0.37226 0.824301,0.0509 1.495704,0.254 2.01421,0.6093 0.526923,0.32736 0.990399,0.86452 1.390432,1.61148 0.40974,0.7652 0.395996,1.26487 -0.04123,1.49901 -0.182212,0.0976 -0.615529,0.14207 -1.299953,0.13349 -0.66625,-0.0183 -1.727713,-0.11803 -3.184392,-0.29914 -1.4385,-0.19086 -2.897787,-0.46435 -4.377864,-0.82049 -0.558224,-0.12304 -1.030566,-0.15142 -1.417028,-0.0851 -0.396247,0.0481 -1.079102,0.26138 -2.048569,0.63987 -0.228393,0.0989 -0.357219,0.12097 -0.386476,0.0663 -0.03904,-0.0729 0.317873,-0.36949 1.070732,-0.88987 0.761296,-0.54834 1.433451,-0.97861 2.016468,-1.29083"
           style="font-size:31px;font-variant:normal;font-stretch:normal;letter-spacing:11.85999966px;fill:#008000;font-family:'华文行楷';-inkscape-font-specification:'华文行楷'"
           id="path3030" />
        <path
           d="m 46.734151,205.80008 c 0.541282,-0.71947 1.043131,-1.30093 1.505548,-1.74438 0.954657,-0.91543 2.003014,-1.41966 3.145075,-1.51269 1.142048,-0.093 1.963397,0.12158 2.464048,0.64363 0.214552,0.22378 0.326228,0.4746 0.335029,0.75248 0.0094,0.24871 -0.09032,0.47318 -0.299142,0.67341 l -0.334704,0.27801 c -0.193924,0.18598 -0.382525,0.46705 -0.565803,0.84322 -0.197599,0.3613 -0.321219,0.68028 -0.37086,0.95693 -0.08317,0.48063 -0.251536,0.84252 -0.50511,1.08567 -0.238673,0.22889 -0.469267,0.42138 -0.691784,0.57748 0.245613,0.13672 0.461399,0.30203 0.647359,0.49592 0.400506,0.41768 0.581559,0.84536 0.543159,1.28304 -0.150578,1.60471 -0.132887,2.50401 0.05307,2.6979 0.08582,0.0895 0.224155,0.11435 0.415017,0.0745 0.134853,-0.15794 0.276866,-0.30844 0.426041,-0.4515 0.70107,-0.67227 1.468769,-1.03621 2.303099,-1.09183 0.820004,-0.0705 1.408813,0.0807 1.766427,0.45361 0.357589,0.37293 0.4802,0.79938 0.367835,1.27936 -0.112391,0.48002 -0.437079,0.97749 -0.974063,1.49242 1.549943,2.06423 2.466233,3.67666 2.748871,4.8373 0.311828,1.16127 0.09484,2.0995 -0.650978,2.81469 -0.328179,0.3147 -0.816138,0.58219 -1.463879,0.80247 -0.632851,0.20599 -1.352125,0.3517 -2.157825,0.43712 -0.791418,0.10036 -1.581294,0.12765 -2.36963,0.0819 -0.773436,-0.06 -1.407301,-0.15373 -1.901595,-0.28103 -0.494307,-0.12729 -0.834434,-0.2879 -1.020382,-0.48182 -0.472039,-0.49224 -0.652282,-1.30724 -0.540727,-2.44502 0.111544,-1.13776 0.740886,-2.57162 1.888027,-4.3016 -0.174106,-0.0621 -0.38274,-0.21995 -0.625903,-0.47355 -0.243175,-0.25357 -0.45498,-0.60881 -0.635415,-1.06572 -0.179833,-0.48611 -0.208856,-0.84483 -0.08707,-1.07616 0.121778,-0.2313 0.178273,-0.48591 0.169487,-0.76383 -0.0088,-0.27788 -0.04895,-0.45412 -0.120468,-0.52872 -0.07153,-0.0746 -0.181869,-0.0403 -0.331029,0.10268 -0.149171,0.14306 -0.316928,0.47573 -0.503272,0.99801 -0.186354,0.52231 -0.299651,1.04614 -0.339892,1.57148 -0.04025,0.52538 -0.187164,0.90964 -0.440742,1.1528 -0.253585,0.24318 -0.526479,0.3617 -0.818683,0.35556 -0.277292,-0.0204 -0.516066,-0.13504 -0.71632,-0.34389 -0.214564,-0.22373 -0.405831,-0.51277 -0.573803,-0.86711 -0.18228,-0.36922 -0.271581,-0.6415 -0.267905,-0.81684 0.0043,-0.20453 0.09624,-0.40724 0.275849,-0.60812 0.464249,-0.53107 1.044968,-1.3886 1.742159,-2.57257 0.682879,-1.19886 1.175216,-2.3725 1.47701,-3.52092 0.301785,-1.14837 0.435205,-1.93488 0.400261,-2.35952 -0.03495,-0.42459 -0.109646,-0.69657 -0.224074,-0.81593 -0.114437,-0.1193 -0.328277,-0.0288 -0.641521,0.27158 -0.313252,0.30042 -0.66716,0.79727 -1.061725,1.49058 -0.394572,0.69336 -0.724159,1.4246 -0.988763,2.19371 -0.249693,0.75486 -0.581118,1.57376 -0.994276,2.4567 -0.412549,0.85376 -1.005626,1.9522 -1.779234,3.29533 -0.75869,1.32885 -1.011335,2.57328 -0.757934,3.73331 0.26832,1.14574 0.984353,2.54934 2.1481,4.2108 0.35515,0.4898 0.443227,0.82052 0.264229,0.99217 -0.22375,0.21456 -0.806631,0.12926 -1.748646,-0.25591 -0.927097,-0.39946 -1.669575,-0.89007 -2.227437,-1.47182 -0.243166,-0.25357 -0.35423,-0.53362 -0.333191,-0.84014 0.02166,-0.33572 -0.01544,-0.65807 -0.111281,-0.96704 -0.09584,-0.30895 -0.35495,-0.84789 -0.777339,-1.61683 -0.407464,-0.78321 -0.560017,-1.52456 -0.457659,-2.22403 0.102366,-0.69944 0.429504,-1.3138 0.981413,-1.84306 0.179002,-0.17163 0.372305,-0.32837 0.579909,-0.4702 -1.250971,-0.28931 -2.348493,-0.92621 -3.292567,-1.91073 -0.286076,-0.29831 -0.542018,-0.63986 -0.767827,-1.02465 -0.225183,-0.41397 -0.300487,-0.65672 -0.225911,-0.72826 0.07459,-0.0715 0.220999,-0.083 0.439229,-0.0346 0.218242,0.0484 0.379568,0.0226 0.483978,-0.0776 0.104422,-0.10011 0.14692,-0.38424 0.127493,-0.85241 -0.0188,-0.49734 0.0016,-0.77463 0.06129,-0.83187 0.05967,-0.0572 0.118114,-0.056 0.175324,0.004 0.05783,0.0305 0.201182,0.16502 0.430042,0.40366 0.214566,0.22377 0.775793,0.64481 1.683683,1.2631 0.907898,0.61834 1.665292,1.09464 2.272187,1.42891 0.370861,-0.95691 0.70933,-2.11184 1.015407,-3.46481 -1.324116,0.41077 -2.498256,0.29115 -3.522423,-0.35886 -1.02416,-0.64996 -1.743651,-1.19125 -2.158475,-1.62385 -0.243163,-0.25356 -0.290165,-0.45187 -0.141005,-0.59494 0.164088,-0.15731 0.722649,-0.30639 1.675684,-0.44722 -0.332089,-2.28715 -0.0581,-3.85271 0.821977,-4.69668 0.58175,-0.55782 1.332695,-0.8198 2.252837,-0.78593 0.920145,0.0339 1.659146,0.34176 2.217006,0.92348 0.343296,0.35803 0.532726,0.73472 0.56829,1.13009 0.155939,1.62576 0.371545,3.19427 0.64682,4.70554 m -2.372061,1.24386 c -2.16e-4,-0.68697 -0.113028,-1.58096 -0.338435,-2.68196 -0.224794,-1.13018 -0.434257,-1.9458 -0.62839,-2.44686 -0.179214,-0.51532 -0.411862,-0.92215 -0.697946,-1.22051 -0.300383,-0.31322 -0.610983,-0.48783 -0.9318,-0.52381 -0.305895,-0.0502 -0.56326,0.0248 -0.772096,0.22499 -0.46241,0.44345 -0.678591,0.99436 -0.648546,1.65271 0.03005,0.65841 0.387458,1.38943 1.072212,2.19307 0.837602,0.48531 1.420898,0.8995 1.749889,1.24256 0.314691,0.32819 0.713062,0.84812 1.195112,1.55981 m -1.100257,6.46677 c -0.462629,-0.24355 -0.880401,-0.18653 -1.253318,0.17106 -0.357995,0.34331 -0.617395,0.86408 -0.778202,1.56229 -0.160187,0.66903 -0.02572,1.22729 0.403398,1.67477 0.157347,0.16409 0.359136,0.29987 0.605365,0.40734 0.09664,-1.12345 0.437554,-2.39527 1.022757,-3.81546 m 12.243603,2.69033 c -0.448121,0.45836 -0.715088,0.64278 -0.800902,0.55327 -0.02862,-0.0298 -0.0044,-0.13894 0.07264,-0.32736 0.07764,-0.21761 0.09776,-0.48029 0.06037,-0.78804 -0.172272,-0.14976 -0.395822,-0.29331 -0.670653,-0.43063 -0.787704,2.01523 -1.464966,3.29461 -2.031788,3.83816 l -0.491329,0.4282 c -0.50717,0.48635 -0.745114,1.02949 -0.713833,1.62942 0.03188,0.57073 0.183713,0.9978 0.455497,1.28121 0.486331,0.50717 1.348952,0.49602 2.587866,-0.0335 1.253199,-0.51454 2.148301,-1.02929 2.685309,-1.54425 0.551901,-0.52924 0.72609,-1.16872 0.522566,-1.91845 -0.189244,-0.73479 -0.747823,-1.63082 -1.675739,-2.68807"
           style="font-size:31px;font-variant:normal;font-stretch:normal;letter-spacing:11.85999966px;fill:#008000;font-family:'华文行楷';-inkscape-font-specification:'华文行楷'"
           id="path3032" />
      </g>
      <path
         sodipodi:nodetypes="cc"
         inkscape:connector-curvature="0"
         id="path2998"
         d="M -145.73572,206.80145 C -90.731725,275.75181 2.747879,280.608 66.510266,208.26859"
         style="fill:none;stroke:none" />
    </g>
  </g>
</svg>
