<?xml version="1.0" encoding="UTF-8" standalone="no"?>
<!-- Created with Inkscape (http://www.inkscape.org/) -->

<svg
   xmlns:dc="http://purl.org/dc/elements/1.1/"
   xmlns:cc="http://creativecommons.org/ns#"
   xmlns:rdf="http://www.w3.org/1999/02/22-rdf-syntax-ns#"
   xmlns:svg="http://www.w3.org/2000/svg"
   xmlns="http://www.w3.org/2000/svg"
   xmlns:sodipodi="http://sodipodi.sourceforge.net/DTD/sodipodi-0.dtd"
   xmlns:inkscape="http://www.inkscape.org/namespaces/inkscape"
   width="318.89764"
   height="194.8819"
   id="svg2"
   version="1.1"
   inkscape:version="0.48.0 r9654"
   sodipodi:docname="新建文档 1">
  <defs
     id="defs4">
    <clipPath
       clipPathUnits="userSpaceOnUse"
       id="clipPath2998">
      <rect
         style="fill:none;stroke:#000000;stroke-width:1.625;stroke-miterlimit:4;stroke-dasharray:none"
         id="rect3000"
         width="291.42856"
         height="374.28571"
         x="754.28571"
         y="572.36218" />
    </clipPath>
  </defs>
  <sodipodi:namedview
     id="base"
     pagecolor="#ffffff"
     bordercolor="#666666"
     borderopacity="1.0"
     inkscape:pageopacity="0.0"
     inkscape:pageshadow="2"
     inkscape:zoom="1.4"
     inkscape:cx="203.93481"
     inkscape:cy="91.317792"
     inkscape:document-units="px"
     inkscape:current-layer="g3050"
     showgrid="false"
     inkscape:window-width="1280"
     inkscape:window-height="671"
     inkscape:window-x="0"
     inkscape:window-y="28"
     inkscape:window-maximized="1" />
  <metadata
     id="metadata7">
    <rdf:RDF>
      <cc:Work
         rdf:about="">
        <dc:format>image/svg+xml</dc:format>
        <dc:type
           rdf:resource="http://purl.org/dc/dcmitype/StillImage" />
        <dc:title></dc:title>
      </cc:Work>
    </rdf:RDF>
  </metadata>
  <g
     inkscape:label="Layer 1"
     inkscape:groupmode="layer"
     id="layer1"
     transform="translate(0,-857.48041)">
    <g
       id="g3050">
      <g
         id="g3100"
         transform="matrix(1.5605918,0.28298656,-0.28195624,1.5662945,-15.702192,169.16784)">
        <g
           id="g3075">
          <path
             inkscape:connector-curvature="0"
             id="path3002"
             d="m 112.14286,449.50504 c 1.42857,0 2.85714,0 4.28571,0 0.11905,0 0.2381,0 0.35714,0 0.11905,0 0.25067,-0.0532 0.35715,0 0.15058,0.0753 0.18878,0.35714 0.35714,0.35714 0.16836,0 0.20656,-0.28185 0.35714,-0.35714 0.10648,-0.0532 0.2381,0 0.35715,0 0.11904,0 0.23809,0 0.35714,0 0.427,0 1.90976,0.0777 2.14286,0 0.25253,-0.0842 0.45603,-0.29258 0.71428,-0.35714 0.23099,-0.0577 0.50133,0.10648 0.71429,0 0.30117,-0.15059 0.47619,-0.47619 0.71428,-0.71429 0.11905,-0.11905 0.19743,-0.3039 0.35715,-0.35714 0.002,-5.4e-4 1.07108,3.4e-4 1.07142,0 0.0842,-0.0842 -0.10647,-0.30391 0,-0.35715 0.21296,-0.10647 0.50133,0.10648 0.71429,0 0.10648,-0.0532 -0.0842,-0.27296 0,-0.35714 0.0842,-0.0842 0.2442,0.0376 0.35714,0 0.25254,-0.0842 0.46175,-0.27296 0.71429,-0.35714 0.3795,-0.1265 1.04907,0.1265 1.42857,0 0.25254,-0.0842 0.45604,-0.29258 0.71429,-0.35714 0.23098,-0.0577 0.4884,0.0753 0.71428,0 0.81563,-0.27188 -0.22076,-0.71429 1.07143,-0.71429 0.2662,0 0.44809,0.35714 0.71429,0.35714 0.11904,0 -0.10648,-0.3039 0,-0.35714 0.42591,-0.21296 1.00265,0.21296 1.42857,0 0.10648,-0.0532 -0.10648,-0.3039 0,-0.35714 0.32245,-0.16123 1.73363,0.13641 2.14285,0 0.15972,-0.0532 0.2381,-0.2381 0.35715,-0.35715 0.23809,-0.11904 0.45603,-0.29258 0.71428,-0.35714 0.23099,-0.0577 0.48841,0.0753 0.71429,0 0.15972,-0.0532 0.18878,-0.35714 0.35714,-0.35714 0.16836,0 0.18879,0.35714 0.35714,0.35714 0.64738,0 0.66362,-0.44241 1.07143,-0.71428 0.22149,-0.14766 0.47619,-0.2381 0.71429,-0.35715 0.23809,-0.11904 0.45603,-0.29258 0.71428,-0.35714 0.23099,-0.0577 0.54593,0.16836 0.71429,0 0.11905,-0.11905 -0.43243,-0.20656 -0.35714,-0.35714 0.11904,-0.2381 0.52605,-0.16891 0.71428,-0.35715 0.0842,-0.0842 0,-0.23809 0,-0.35714 0,-0.23809 -0.10648,-0.50133 0,-0.71428 0.0532,-0.10648 0.25067,0.0532 0.35715,0 0.15058,-0.0753 0.20655,-0.28185 0.35714,-0.35715 0.10648,-0.0532 0.25066,0.0532 0.35714,0 1.08913,-0.54456 -0.65319,-0.28313 1.07143,-0.71428 0.23099,-0.0577 0.50133,0.10648 0.71429,0 0.10648,-0.0532 -0.0842,-0.27297 0,-0.35715 0.0842,-0.0842 0.25066,0.0532 0.35714,0 0.15058,-0.0753 0.20656,-0.28185 0.35714,-0.35714 0.10648,-0.0532 0.27297,0.0842 0.35714,0 0.18824,-0.18823 0.16892,-0.52605 0.35715,-0.71428 0.18823,-0.18823 0.49279,-0.20949 0.71428,-0.35715 0.14009,-0.0934 0.18879,-0.35714 0.35715,-0.35714 0.16835,0 0.23809,0.47619 0.35714,0.35714 0.16836,-0.16836 -0.0753,-0.48841 0,-0.71428 0.0532,-0.15972 0.23809,-0.2381 0.35714,-0.35715 0.11905,-0.11904 0.20656,-0.28185 0.35714,-0.35714 0.21296,-0.10648 0.54593,0.16836 0.71429,0 0.0842,-0.0842 -0.0842,-0.27296 0,-0.35714 0.18823,-0.18823 0.4928,-0.20948 0.71429,-0.35714 0.14008,-0.0934 0.20655,-0.28185 0.35714,-0.35715 0.10648,-0.0532 0.25809,0.066 0.35714,0 0.85386,-0.56923 0.45159,-0.82718 1.42857,-1.07143 1.23704,-0.30925 0.2145,0.45225 1.42857,-0.35714 0.81726,-0.54483 -0.22331,-0.2827 1.07143,-0.71428 0.11294,-0.0376 0.25067,0.0532 0.35715,0 0.15058,-0.0753 0.18878,-0.35715 0.35714,-0.35715 0.11905,0 -0.0842,0.44133 0,0.35715 0.18823,-0.18823 0.16891,-0.52606 0.35714,-0.71429 0.0842,-0.0842 -0.0842,0.27296 0,0.35714 0.0842,0.0842 0.2381,0 0.35714,0 0.11905,0 0.2381,0 0.35715,0 0.95238,0 1.90476,0 2.85714,0 0.11905,0 -0.23809,0 -0.35714,0"
             style="fill:none;stroke:#000000;stroke-width:1px;stroke-linecap:butt;stroke-linejoin:miter;stroke-opacity:1" />
          <path
             inkscape:connector-curvature="0"
             id="path3004"
             d="m 121.42857,437.71932 c 0.11905,0.47619 0.20193,0.96292 0.35714,1.42858 0.52002,1.56003 0.25639,-0.25189 1.07143,1.78571 0.0884,0.22107 0,0.47619 0,0.71429 0,0.11904 -0.0532,0.25066 0,0.35714 0.0753,0.15058 0.28185,0.20656 0.35715,0.35714 0.14285,0.28572 -0.14286,0.78572 0,1.07143 0.0753,0.15058 0.3039,0.19742 0.35714,0.35714 0.1265,0.37951 -0.1265,1.04907 0,1.42857 0.0842,0.25254 0.27296,0.46175 0.35714,0.71429 0.0377,0.11294 -0.0532,0.25066 0,0.35714 0.0753,0.15059 0.28185,0.20656 0.35714,0.35715 0.0532,0.10648 -0.0842,0.27296 0,0.35714 0.0842,0.0842 0.27297,-0.0842 0.35715,0 0.0842,0.0842 -0.066,0.25809 0,0.35714 0.11066,0.166 1.3992,1.34046 1.42857,1.42857 0.0532,0.15972 -0.35714,0.18879 -0.35714,0.35715 0,0.16835 0.26375,0.21706 0.35714,0.35714 0.14766,0.22149 0.20948,0.49279 0.35714,0.71428 0.0934,0.14009 0.28185,0.20656 0.35714,0.35715 0.0532,0.10648 -0.0532,0.25066 0,0.35714 0.81726,1.6345 -0.14802,-1.51551 0.71429,1.07143 0.0376,0.11294 -0.066,0.25809 0,0.35714 0.18678,0.28017 0.51226,0.44491 0.71429,0.71429 0.15972,0.21296 0.20948,0.49279 0.35714,0.71428 0.0934,0.14009 0.28185,0.20656 0.35714,0.35715 0.0532,0.10648 -0.0842,0.27296 0,0.35714 0.18823,0.18823 0.47619,0.23809 0.71429,0.35714"
             style="fill:none;stroke:#000000;stroke-width:1px;stroke-linecap:butt;stroke-linejoin:miter;stroke-opacity:1" />
          <path
             inkscape:connector-curvature="0"
             id="path3006"
             d="m 135.71429,428.43361 c 0.75292,0.47306 -0.18823,1.22102 0,1.78571 1.01173,2.02346 -0.1331,-0.53239 0.35714,1.42858 0.0646,0.25825 0.29258,0.45603 0.35714,0.71428 0.11549,0.46197 -0.11549,0.9666 0,1.42857 0.0646,0.25825 0.29258,0.45604 0.35714,0.71429 0.0577,0.23099 -0.0753,0.48841 0,0.71428 0.0532,0.15972 0.30391,0.19743 0.35715,0.35715 0.0753,0.22587 0,0.47619 0,0.71428 0,0.47619 0,0.95238 0,1.42857 0,1.42858 0,2.85715 0,4.28572 0,1.07143 0,2.14286 0,3.21428 0,0.2381 0,0.47619 0,0.71429 0,0.2381 0.0577,0.4833 0,0.71429 -0.0646,0.25825 -0.30494,0.45325 -0.35715,0.71428 -0.07,0.35021 0.0866,0.72495 0,1.07143 -0.0408,0.16333 -0.35714,0.18878 -0.35714,0.35714 0,0.37646 0.28331,0.70228 0.35714,1.07143 0.0467,0.23347 0,0.47619 0,0.71429 0,0.23809 0.0577,0.4833 0,0.71428 -0.0646,0.25825 -0.29258,0.45604 -0.35714,0.71429 -0.0577,0.23099 0.0577,0.4833 0,0.71428 -0.0646,0.25826 -0.35714,0.44809 -0.35714,0.71429 0,0.2662 0.35714,0.44809 0.35714,0.71429 0,0.16835 -0.28185,0.20655 -0.35714,0.35714 -0.10648,0.21296 0.16836,0.54593 0,0.71428 -0.0842,0.0842 -0.35714,-0.11904 -0.35714,0 0,0.16836 0.35714,0.18879 0.35714,0.35715 0,0.16836 -0.28185,0.20656 -0.35714,0.35714 -0.0532,0.10648 0.0532,0.25066 0,0.35714 -0.15059,0.30117 -0.56371,0.41312 -0.71429,0.71429 -0.0532,0.10648 0.0842,0.27296 0,0.35714 -0.16836,0.16836 -0.54593,-0.16836 -0.71429,0 -0.0842,0.0842 0.0532,0.25067 0,0.35714 -0.0753,0.15059 -0.35714,0.18879 -0.35714,0.35715 0,0.11905 0.35714,-0.11905 0.35714,0 0,0.11905 -0.35714,0.11905 -0.35714,0 0,-0.11905 0.44132,0.0842 0.35714,0 -0.30351,-0.30352 -0.72804,-0.45675 -1.07142,-0.71429 -0.13469,-0.10101 -0.2381,-0.23809 -0.35715,-0.35714 -0.11904,-0.11905 -0.35714,-0.18879 -0.35714,-0.35714 0,-0.16836 0.26375,-0.21706 0.35714,-0.35715 0.14766,-0.22149 0.16892,-0.52605 0.35715,-0.71428 0.0842,-0.0842 0.27296,0.0842 0.35714,0 0.0229,-0.0229 0.66993,-1.36205 0.71428,-1.42857 0.0934,-0.14009 0.28186,-0.20656 0.35715,-0.35715 0.0532,-0.10648 -0.0842,-0.27296 0,-0.35714 0.0842,-0.0842 0.27296,0.0842 0.35714,0 0.18823,-0.18823 0.13565,-0.56663 0.35714,-0.71429 0.19811,-0.13207 0.47619,0 0.71429,0 0.11905,0 0.23809,0 0.35714,0"
             style="fill:none;stroke:#000000;stroke-width:1px;stroke-linecap:butt;stroke-linejoin:miter;stroke-opacity:1" />
          <path
             inkscape:connector-curvature="0"
             id="path3008"
             d="m 121.42857,465.21932 c 0,0.59524 -0.0978,1.19858 0,1.78572 0.0277,0.16607 0.28185,0.20656 0.35714,0.35714 0.0532,0.10648 -0.0532,0.25067 0,0.35714 0.0753,0.15059 0.30391,0.19743 0.35715,0.35715 0.0566,0.16984 0,2.5369 0,2.85714 0,0.34602 0.071,1.9299 0,2.14286 -0.0842,0.25254 -0.20949,0.49279 -0.35715,0.71428 -0.0934,0.14009 -0.35714,0.18879 -0.35714,0.35715 0,0.26619 0.27297,0.46174 0.35714,0.71428 0.0376,0.11294 0,0.2381 0,0.35714 0,0.2381 0.0753,0.48841 0,0.71429 -0.0532,0.15972 -0.28185,0.20656 -0.35714,0.35714 -0.0532,0.10648 0.0842,0.27297 0,0.35715 -0.0842,0.0842 -0.25066,-0.0532 -0.35714,0 -0.15059,0.0753 -0.2381,0.23809 -0.35714,0.35714 -0.11905,0.11905 -0.30391,0.19742 -0.35715,0.35714 -0.0753,0.22588 0.16836,0.54593 0,0.71429 -0.16836,0.16836 -0.54592,-0.16836 -0.71428,0 -0.16836,0.16836 0.0753,0.48841 0,0.71428 -0.0708,0.21241 -1.07143,0.92541 -1.07143,1.07143 0,0.16836 0.35714,0.18879 0.35714,0.35714 0,0.2381 -0.54593,-0.16835 -0.71428,0 -0.16836,0.16836 0.16835,0.54593 0,0.71429 -0.16836,0.16836 -0.54593,-0.16836 -0.71429,0 -0.0842,0.0842 0.0842,0.27296 0,0.35714 -0.0842,0.0842 -0.27296,-0.0842 -0.35714,0 -0.0842,0.0842 0.0842,0.27297 0,0.35715 -0.0115,0.0115 -0.98481,0 -1.07143,0"
             style="fill:none;stroke:#000000;stroke-width:1px;stroke-linecap:butt;stroke-linejoin:miter;stroke-opacity:1" />
          <path
             inkscape:connector-curvature="0"
             id="path3010"
             d="m 122.85714,466.29075 c 0.47619,0.11905 0.94726,0.26088 1.42857,0.35715 0.22262,0.0445 1.67533,0.0368 1.78572,0 0.64317,-0.2144 0.0711,-0.4999 0.71428,-0.71429 0.22588,-0.0753 0.50133,0.10648 0.71429,0 0.10648,-0.0532 -0.0842,-0.27296 0,-0.35714 0.0842,-0.0842 0.27296,-0.0842 0.35714,0 0.0842,0.0842 0.11905,0.35714 0,0.35714 -0.11904,0 0,-0.47619 0,-0.35714 0,2.36898 -0.16836,-0.50508 0.35715,1.07143 0.0613,0.18399 0,2.1222 0,2.5 0,1.90476 0,3.80952 0,5.71428 0,1.42857 0,2.85714 0,4.28572 0,0.3714 -0.0702,1.86192 0,2.14285 0.0646,0.25825 0.29258,0.45604 0.35714,0.71429 0.0702,0.28093 0,1.77145 0,2.14286 0,1.66666 0,3.33333 0,5 0,2.14285 0,4.28571 0,6.42857 0,0.13115 0.0144,1.4142 0,1.42857 -0.0842,0.0842 -0.2381,0 -0.35714,0 0,0.23809 0.10648,0.50133 0,0.71428 -0.0532,0.10648 -0.30391,-0.10647 -0.35715,0 -0.10648,0.21296 0.0753,0.48841 0,0.71429 -0.0532,0.15972 -0.3039,0.19742 -0.35714,0.35714 -0.0927,0.27795 0.11085,2.03201 0,2.14286 -0.16836,0.16836 -0.47619,0 -0.71429,0 -0.23809,0.2381 -0.5275,0.43412 -0.71428,0.71429 -0.066,0.0991 0.0532,0.25066 0,0.35714 -0.0753,0.15058 -0.3039,0.19742 -0.35714,0.35714 -0.0753,0.22588 0.16835,0.54593 0,0.71429 -0.16836,0.16836 -0.4833,-0.0577 -0.71429,0 -0.25825,0.0646 -0.52605,0.16891 -0.71429,0.35714 -0.12829,0.12829 0.11553,1.19752 0,1.42857 -0.0532,0.10648 -0.27296,-0.0842 -0.35714,0 -0.0842,0.0842 0.0532,0.25067 0,0.35714 -0.0753,0.15059 -0.26375,0.21706 -0.35714,0.35715 -0.39649,0.59473 -0.65766,1.59116 -1.07143,2.14285 -0.20203,0.26938 -0.43412,0.52751 -0.71429,0.71429 -0.099,0.066 -0.3039,-0.10648 -0.35714,0 -0.10648,0.21296 0.0753,0.48841 0,0.71429 -0.0532,0.15972 -0.28185,0.20655 -0.35714,0.35714 -0.10648,0.21296 0.10648,0.50133 0,0.71428 -0.0753,0.15059 -0.2381,0.2381 -0.35714,0.35715 -1.09237,1.09236 0.58302,-0.65831 -0.71429,1.07143 -0.20203,0.26937 -0.51226,0.44491 -0.71429,0.71428 -0.15971,0.21296 -0.16891,0.52606 -0.35714,0.71429 -0.18823,0.18823 -0.50133,0.19742 -0.71428,0.35714 -0.26938,0.20203 -0.38763,0.63262 -0.71429,0.71429 -0.25825,0.0646 -0.47619,-0.47619 -0.71429,-0.35715 -0.21295,0.10648 0.10648,0.50133 0,0.71429 -0.0532,0.10648 -0.23809,0 -0.35714,0 -0.11905,0.23809 -0.29258,0.45603 -0.35714,0.71428 -0.0578,0.23099 0.16836,0.54593 0,0.71429 -0.16836,0.16836 -0.50133,-0.10648 -0.71429,0 -0.21296,0.10648 0.2381,0.71429 0,0.71429 -0.16836,0 -0.18878,-0.35715 -0.35714,-0.35715 -0.11905,0 0.0376,0.24421 0,0.35715 -0.0842,0.25253 -0.0909,0.71428 -0.35714,0.71428 -0.2662,0 -0.16891,-0.52605 -0.35715,-0.71428 -0.0842,-0.0842 -0.23809,0 -0.35714,0 -0.71428,0 -1.42857,0 -2.14286,0 -0.23809,0 -0.50132,0.10648 -0.71428,0 -0.30117,-0.15059 -0.47619,-0.47619 -0.71429,-0.71429 -0.23809,-0.23809 -0.47619,-0.47619 -0.71428,-0.71429"
             style="fill:none;stroke:#000000;stroke-width:1px;stroke-linecap:butt;stroke-linejoin:miter;stroke-opacity:1" />
          <path
             inkscape:connector-curvature="0"
             id="path3012"
             d="m 124.28571,479.1479 c 0.47619,0.47619 1.00788,0.9027 1.42858,1.42857 0.73224,0.9153 -4.61426,1.75711 -1.42858,-1.42857 -1.40224,-2.38393 1.53584,2.03559 2.14286,1.42857 0.0842,-0.0842 0,-0.2381 0,-0.35715 0,-0.11904 0,-0.23809 0,-0.35714 0,-0.11905 0,-0.23809 0,-0.35714"
             style="fill:none;stroke:#000000;stroke-width:1px;stroke-linecap:butt;stroke-linejoin:miter;stroke-opacity:1" />
          <path
             inkscape:connector-curvature="0"
             id="path3014"
             d="m 122.14286,489.86218 c 0.47619,0.2381 0.92349,0.54593 1.42857,0.71429 0.0234,0.008 1.76226,0.008 1.78571,0 0.15972,-0.0532 0.20656,-0.28185 0.35715,-0.35715 0.10648,-0.0532 0.23809,0 0.35714,0 0.11905,-0.11904 0.20656,-0.28185 0.35714,-0.35714 0.12776,-0.0639 1.01626,0.11034 1.07143,0 0.10648,-0.21296 -0.10648,-0.50133 0,-0.71428 0.0532,-0.10648 0.27296,0.0842 0.35714,0 0.18823,-0.18823 0.20949,-0.4928 0.35715,-0.71429 0.43565,-0.65348 0.45533,-0.0356 0.71428,-1.07143 0.0577,-0.23098 -0.16836,-0.54593 0,-0.71428 0.16836,-0.16836 0.54593,0.16835 0.71429,0 0.16836,-0.16836 0,-0.47619 0,-0.71429 0,-0.71429 0,-1.42857 0,-2.14286"
             style="fill:none;stroke:#000000;stroke-width:1px;stroke-linecap:butt;stroke-linejoin:miter;stroke-opacity:1" />
          <path
             inkscape:connector-curvature="0"
             id="path3018"
             d="m 137.85714,464.1479 c 0.59524,-0.47619 1.19048,-0.95238 1.78572,-1.42858 0.23809,-0.11904 0.50132,-0.19742 0.71428,-0.35714 0.26938,-0.20203 0.42556,-0.54104 0.71429,-0.71428 0.32281,-0.19369 0.73471,-0.18879 1.07143,-0.35715 0.15058,-0.0753 0.19742,-0.3039 0.35714,-0.35714 0.21238,-0.0708 1.721,0 2.14286,0 0.23809,0 0.50132,0.10648 0.71428,0 0.52669,-0.26335 0.71467,-1.07104 1.07143,-0.71429 0.0842,0.0842 0,0.2381 0,0.35715 0,0.11905 0,0.23809 0,0.35714 0,0.35714 0,0.71429 0,1.07143 0,0.59524 0,1.19048 0,1.78571 0,0.2381 0.10648,0.50133 0,0.71429 -0.0532,0.10648 -0.27296,-0.0842 -0.35714,0 -0.16407,0.16407 -0.91989,1.83977 -1.07143,2.14286 -0.35714,0.71428 -0.71429,1.42857 -1.07143,2.14285 -0.11905,0.2381 -0.29258,0.45604 -0.35714,0.71429 -0.0577,0.23099 0,0.47619 0,0.71428 0,0.11905 0.0532,0.25067 0,0.35715 -0.0753,0.15058 -0.28185,0.20656 -0.35714,0.35714 -0.0532,0.10648 0.0842,0.27296 0,0.35714 -0.19537,0.19537 -1.35693,0.571 -1.42858,0.71429 -0.0753,0.15058 0.35715,0.18878 0.35715,0.35714 0,0.54918 -0.72498,1.08212 -1.07143,1.42857 -0.11905,0.11905 -0.20656,0.28185 -0.35714,0.35715 -0.10648,0.0532 -0.27297,-0.0842 -0.35715,0 -0.59524,0.59523 1.30953,0.35714 -0.71428,0.35714 -0.11905,0 0.35714,-0.11905 0.35714,0 0,0.11905 -0.25066,-0.0532 -0.35714,0 -0.15059,0.0753 -0.18879,0.35714 -0.35715,0.35714 -0.11904,0 0.0842,-0.27296 0,-0.35714 -0.0842,-0.0842 -0.23809,0 -0.35714,0 -0.11905,0 -0.23809,0 -0.35714,0 -0.47619,0 -0.95238,0 -1.42857,0 -0.11905,0 -0.35715,0.11905 -0.35715,0 0,-0.11905 0.35715,0.11905 0.35715,0 0,-0.16836 -0.28185,-0.20656 -0.35715,-0.35714 -0.0532,-0.10648 -0.11904,-0.35715 0,-0.35715 0.11905,0 0,0.47619 0,0.35715 0,-0.2381 -0.10647,-0.50133 0,-0.71429 0.0532,-0.10648 0.2381,0 0.35715,0 0.23809,0 0.4833,-0.0577 0.71428,0 0.25825,0.0646 0.47619,0.2381 0.71429,0.35714 0.23809,0.11905 0.50133,0.19743 0.71428,0.35715 0.26938,0.20203 0.41312,0.5637 0.71429,0.71428 0.21296,0.10648 0.49322,-0.0884 0.71429,0 0.39853,0.15941 0.65871,0.59637 1.07142,0.71429 0.45787,0.13082 0.95239,0 1.42858,0 0.11904,0 0.2442,-0.0376 0.35714,0 0.50508,0.16836 0.91207,0.58516 1.42857,0.71428 0.23099,0.0577 0.50133,-0.10648 0.71429,0 0.10648,0.0532 0,0.2381 0,0.35715 0.23809,0.11904 0.45603,0.29258 0.71428,0.35714 0.23099,0.0577 0.50133,-0.10648 0.71429,0 0.10648,0.0532 -0.0842,0.27296 0,0.35714 0.50668,0.50669 1.16299,0.35714 1.78571,0.35714 0.11905,0 0.24421,-0.0376 0.35714,0 0.25254,0.0842 0.46175,0.27297 0.71429,0.35715 0.11294,0.0376 0.25066,-0.0532 0.35714,0 0.15059,0.0753 0.20656,0.28185 0.35715,0.35714 0.19474,0.0974 1.28195,-0.0977 1.42857,0 0.28016,0.18678 0.41311,0.5637 0.71428,0.71429 0.39331,0.19665 1.00979,-0.1396 1.42857,0 0.25254,0.0842 0.45604,0.29258 0.71429,0.35714 0.23099,0.0577 0.47619,0 0.71429,0 0.35714,0 0.71428,0 1.07142,0 1.07143,0 2.14286,0 3.21429,0 0.23468,0 0.86993,-0.0672 1.07143,0 0.25254,0.0842 0.46175,0.27296 0.71428,0.35714 0.22417,0.0747 1.14106,0 1.42858,0 0.95238,0 1.90476,0 2.85714,0 0.11905,0 -0.47619,0 -0.35714,0 0.23809,0 0.50132,0.10648 0.71428,0 0.10648,-0.0532 -0.10648,-0.3039 0,-0.35714 0.1181,-0.0591 1.51085,0 1.78572,0 0.47761,0 0.23667,0 0.71428,0 0.11905,0 0.35714,-0.11905 0.35714,0 0,0.11905 -0.23809,0 -0.35714,0"
             style="fill:none;stroke:#000000;stroke-width:1px;stroke-linecap:butt;stroke-linejoin:miter;stroke-opacity:1" />
          <path
             inkscape:connector-curvature="0"
             id="path3020"
             d="m 136.78571,489.1479 c 2.01919,-0.40384 1.17869,-0.35715 2.5,-0.35715 1.07143,0 2.14286,0 3.21429,0 0.23462,0 1.34459,0.042 1.42857,0 0.10648,-0.0532 -0.0842,-0.27296 0,-0.35714 0.0842,-0.0842 0.27297,0.0842 0.35714,0 0.0842,-0.0842 -0.0842,-0.27296 0,-0.35714 0.0842,-0.0842 0.25067,0.0532 0.35715,0 0.15058,-0.0753 0.21706,-0.26376 0.35714,-0.35715 0.22149,-0.14766 0.52606,-0.16891 0.71429,-0.35714 0.0842,-0.0842 0,-0.23809 0,-0.35714 0.23809,-0.2381 0.44491,-0.51226 0.71428,-0.71429 0.57829,-0.43371 0.70731,-0.1681 1.07143,-0.71428 0.14766,-0.22149 0.0909,-0.71429 0.35714,-0.71429 0.2662,0 0.16892,0.52606 0.35715,0.71429 0.0842,0.0842 -0.0842,-0.27297 0,-0.35715 0.16835,-0.16835 0.4884,0.0753 0.71428,0 0.25254,-0.0842 0.46175,-0.27296 0.71429,-0.35714 0.11294,-0.0376 0.27296,0.0842 0.35714,0 0.0842,-0.0842 -0.0842,-0.27296 0,-0.35714 0.0842,-0.0842 0.2381,0 0.35714,0 0.35715,0 0.71429,0 1.07143,0 0.72438,0 1.1264,0 2.5,0"
             style="fill:none;stroke:#000000;stroke-width:1px;stroke-linecap:butt;stroke-linejoin:miter;stroke-opacity:1" />
          <path
             inkscape:connector-curvature="0"
             id="path3022"
             d="m 137.14286,497.36218 c 0.83333,-0.35714 1.66666,-0.71428 2.5,-1.07143 0.47619,0 0.9666,0.1155 1.42857,0 0.5165,-0.12912 0.91666,-0.56802 1.42857,-0.71428 0.3434,-0.0981 0.75199,0.15972 1.07143,0 0.23809,-0.11905 0.13565,-0.56663 0.35714,-0.71429 0.19811,-0.13207 0.47619,0 0.71429,0 0.23809,0 0.47619,0 0.71428,0 0.2381,0 0.47619,0 0.71429,0 0,-0.11905 -0.10648,-0.3039 0,-0.35714 0.21296,-0.10648 0.47619,0 0.71428,0 0.59524,0 1.19048,0 1.78572,0 0.11905,0 0.25066,0.0532 0.35714,0 0.15059,-0.0753 0.20656,-0.28185 0.35714,-0.35714 0.21296,-0.10648 0.54593,0.16835 0.71429,0 0.0842,-0.0842 -0.11905,-0.35715 0,-0.35715 0.16836,0 0.20656,0.28185 0.35714,0.35715 0.10648,0.0532 0.2381,0 0.35715,0 0.11904,0 0.27296,0.0842 0.35714,0 0.0842,-0.0842 -0.0532,-0.25067 0,-0.35715 0.54861,-1.09722 0.20144,0.5907 1.07143,-0.71428 0.13207,-0.19811 -0.16836,-0.54593 0,-0.71429 0.16836,-0.16836 0.50132,0.10648 0.71428,0 0.95238,-0.47619 -1.07143,-0.35714 0.35715,-0.35714 0.62862,0 0.71428,-0.29539 0.71428,0.35714"
             style="fill:none;stroke:#000000;stroke-width:1px;stroke-linecap:butt;stroke-linejoin:miter;stroke-opacity:1" />
          <path
             inkscape:connector-curvature="0"
             id="path3024"
             d="m 149.28571,497.71932 c 0.2381,0.59524 0.38445,1.23599 0.71429,1.78572 0.0613,0.10208 0.27296,-0.0842 0.35714,0 0.11773,0.11773 -0.0861,1.17012 0,1.42857 0.0532,0.15972 0.28185,0.20656 0.35715,0.35714 0.10648,0.21296 -0.10648,0.50133 0,0.71429 0.0753,0.15058 0.3039,0.19742 0.35714,0.35714 0.0753,0.22588 0,0.47619 0,0.71429 0,0.35714 0,0.71428 0,1.07143 0,1.30952 0,2.61904 0,3.92857 0,0.35714 -0.11294,0.73261 0,1.07143 0.2862,0.85859 0.69557,-0.28228 0.35714,1.07142 -0.0646,0.25826 -0.27296,0.46175 -0.35714,0.71429 -0.0376,0.11294 0,0.2381 0,0.35714 0,0.59524 0,1.19048 0,1.78572 0,0.95238 0,1.90476 0,2.85714 0,0.35714 0,0.71429 0,1.07143 0,0.11905 0.11905,0.35714 0,0.35714 -0.2662,0 -0.47619,-0.23809 -0.71429,-0.35714 -0.23809,-0.11905 -0.52605,-0.16891 -0.71428,-0.35714 -0.0842,-0.0842 0.0842,-0.27297 0,-0.35715 -0.0842,-0.0842 -0.25067,0.0532 -0.35715,0 -0.78966,-0.39483 -0.11082,-0.22165 -0.35714,-0.71428 -0.0992,-0.19844 -0.71428,-0.59913 -0.71428,-0.71429 0,-0.11905 0.35714,0.11905 0.35714,0 0,-0.64255 -0.50085,-0.21485 -0.71429,-0.35714 -0.28016,-0.18678 -0.47619,-0.47619 -0.71428,-0.71429 -0.11905,-0.11904 0.35714,0.18879 0.35714,0.35715 0,0.11904 -0.2381,0 -0.35714,0 -0.11905,0 -0.2381,0 -0.35715,0"
             style="fill:none;stroke:#000000;stroke-width:1px;stroke-linecap:butt;stroke-linejoin:miter;stroke-opacity:1" />
          <path
             inkscape:connector-curvature="0"
             id="path3026"
             d="m 138.57143,509.86218 c 1.63892,-2.04864 0.88956,-1.2467 2.14286,-2.5 0.11904,-0.11905 0.20655,-0.28185 0.35714,-0.35714 0.0459,-0.023 0.95118,0.11665 0.71428,-0.35714 -0.11904,-0.2381 -0.71428,-0.091 -0.71428,-0.35715 0,-0.23809 0.50133,0.10648 0.71428,0 0.10648,-0.0532 0,-0.23809 0,-0.35714"
             style="fill:none;stroke:#000000;stroke-width:1px;stroke-linecap:butt;stroke-linejoin:miter;stroke-opacity:1" />
          <path
             inkscape:connector-curvature="0"
             id="path3028"
             d="m 147.5,504.50504 c 1.19048,0 2.38095,0 3.57143,0 0.35714,0 0.71914,0.0587 1.07143,0 0.16736,-0.0279 1.55255,-0.48112 1.78571,-0.71429 0.0842,-0.0842 -0.10648,-0.3039 0,-0.35714 0.21296,-0.10648 0.47619,0 0.71429,0 0.23809,0 0.4833,-0.0577 0.71428,0 0.25825,0.0646 0.45604,0.29258 0.71429,0.35714 0.48648,0.12162 1.71079,-0.14402 2.14286,0 0.15972,0.0532 0.18878,0.35715 0.35714,0.35715 0.11905,0 -0.10648,-0.30391 0,-0.35715 0.31944,-0.15972 0.71428,0 1.07143,0 0.16084,0 0.96274,-0.0543 1.07143,0 0.15058,0.0753 0.20655,0.28185 0.35714,0.35715 0.0923,0.0462 1.88971,0 2.14286,0"
             style="fill:none;stroke:#000000;stroke-width:1px;stroke-linecap:butt;stroke-linejoin:miter;stroke-opacity:1" />
          <path
             inkscape:connector-curvature="0"
             id="path3030"
             d="m 181.78571,450.93361 c 0.87113,-0.21778 1.68799,-0.16169 2.14286,-1.07143 0.10648,-0.21296 -0.13207,-0.51618 0,-0.71428 0.14766,-0.22149 0.50133,-0.19743 0.71429,-0.35715 0.26937,-0.20203 0.40165,-0.58923 0.71428,-0.71428 0.3316,-0.13264 0.75199,0.15972 1.07143,0 1.9669,-0.98345 -0.33895,-0.37533 0.35714,-1.07143 0.18824,-0.18823 0.4928,-0.20948 0.71429,-0.35714 0.14008,-0.0934 0.2381,-0.2381 0.35714,-0.35715 0.2381,-0.23809 0.52751,-0.43412 0.71429,-0.71428 0.066,-0.0991 -0.0842,-0.27297 0,-0.35715 0.0842,-0.0842 0.2442,0.0377 0.35714,0 0.25254,-0.0842 0.52606,-0.16891 0.71429,-0.35714 0.0842,-0.0842 -0.0842,-0.27296 0,-0.35714 0.69609,-0.6961 0.088,1.60976 1.07143,-0.35714 0.0753,-0.15059 -0.43244,-0.20656 -0.35715,-0.35715 0.11905,-0.23809 0.50133,-0.19742 0.71429,-0.35714 0.15295,-0.11472 1.21203,-1.3203 1.42857,-1.42857 0.10648,-0.0532 0.27296,0.0842 0.35714,0 0.0842,-0.0842 -0.0532,-0.25066 0,-0.35714 0.0753,-0.15059 0.35715,-0.18879 0.35715,-0.35715 0,-0.16836 -0.35715,-0.18878 -0.35715,-0.35714 0,-0.16836 0.2381,-0.2381 0.35715,-0.35714 0.18802,-0.18803 0.88068,-0.97606 1.07142,-1.07143 0.21296,-0.10648 0.50133,0.10648 0.71429,0 0.15058,-0.0753 0.20656,-0.28185 0.35714,-0.35714 0.10648,-0.0532 0.27297,0.0842 0.35715,0 0.0842,-0.0842 -0.0532,-0.25067 0,-0.35715 0.0753,-0.15058 0.23809,-0.23809 0.35714,-0.35714"
             style="fill:none;stroke:#000000;stroke-width:1px;stroke-linecap:butt;stroke-linejoin:miter;stroke-opacity:1" />
          <path
             inkscape:connector-curvature="0"
             id="path3032"
             d="m 192.14286,447.00504 c -0.59524,0.47619 -1.19048,0.95238 -1.78572,1.42857 0,0.2381 0.10648,0.50133 0,0.71429 -0.15058,0.30117 -0.47619,0.47619 -0.71428,0.71428 -0.11905,0.11905 -0.30391,0.19743 -0.35715,0.35714 -0.0753,0.22588 0.0577,0.4833 0,0.71429 -0.12912,0.5165 -0.51655,0.93425 -0.71428,1.42857 -0.13982,0.34954 -0.18879,0.73471 -0.35714,1.07143 -0.15059,0.30117 -0.52751,0.43412 -0.71429,0.71429 -0.14766,0.22149 -0.23809,0.47619 -0.35714,0.71428 -0.11905,0.2381 -0.27297,0.46175 -0.35715,0.71429 -0.0376,0.11294 0.0532,0.25066 0,0.35714 -0.0753,0.15058 -0.3039,0.19742 -0.35714,0.35714 -0.0753,0.22588 0.0753,0.48841 0,0.71429 -0.0532,0.15972 -0.3039,0.19742 -0.35714,0.35714 -0.0753,0.22588 0.10648,0.50133 0,0.71429 -0.0532,0.10648 -0.3039,-0.10648 -0.35714,0 -0.10648,0.21296 0.10648,0.50132 0,0.71428 -0.0532,0.10648 -0.27297,-0.0842 -0.35715,0 -0.18823,0.18823 -0.23809,0.47619 -0.35714,0.71429 -0.11905,0.23809 -0.29258,0.45603 -0.35714,0.71428 -0.1155,0.46198 0.21296,1.00266 0,1.42858 -0.0532,0.10648 -0.27297,-0.0842 -0.35715,0 -0.0842,0.0842 0,0.23809 0,0.35714 0,0.11905 0,0.23809 0,0.35714 0,0.95238 0,1.90476 0,2.85714 0,0.16085 0.0543,0.96274 0,1.07143 -0.0753,0.15059 -0.3039,0.19743 -0.35714,0.35715 -0.0753,0.22587 0,0.47619 0,0.71428 0,0.47619 0,0.95238 0,1.42857 0,1.07143 0,2.14286 0,3.21429 0,0.19934 0.0545,1.62223 0,1.78571 -0.0532,0.15972 -0.3039,0.19743 -0.35714,0.35715 -0.0753,0.22587 0,0.47619 0,0.71428 0,0.2381 0,0.47619 0,0.71429 0,0.71428 0,1.42857 0,2.14285 0,2.5 0,5 0,7.5 0,0.83334 0,1.66667 0,2.5 0,0.2381 0.10648,0.50133 0,0.71429 -0.0532,0.10648 -0.3039,-0.10648 -0.35714,0 -0.10648,0.21296 0.10648,0.50133 0,0.71429 -0.0532,0.10648 -0.30391,-0.10648 -0.35715,0 -0.21296,0.42591 0.15059,0.97681 0,1.42857 -0.0532,0.15972 -0.35714,0.18878 -0.35714,0.35714 0,0.16836 0.3039,0.19742 0.35714,0.35714 0.25855,0.77565 -0.18258,0.73035 -0.35714,1.42857 -0.0577,0.23099 0.10648,0.50133 0,0.71429 -0.0532,0.10648 -0.3039,-0.10648 -0.35714,0 -0.10648,0.21296 0.10648,0.50133 0,0.71429 -0.0532,0.10648 -0.30391,-0.10648 -0.35715,0 -0.10647,0.21295 0.10648,0.50132 0,0.71428 -0.0532,0.10648 -0.2442,-0.0376 -0.35714,0 -0.25254,0.0842 -0.52605,0.16891 -0.71428,0.35714 -0.0842,0.0842 0.0532,0.25067 0,0.35715 -0.15059,0.30117 -0.56371,0.41311 -0.71429,0.71428 -0.0532,0.10648 0.0532,0.25067 0,0.35715 -0.0753,0.15058 -0.28185,0.20655 -0.35714,0.35714 -0.0532,0.10648 0.0532,0.25066 0,0.35714 -0.74317,1.48634 0.0246,-0.3818 -0.71429,0.35714 -0.16836,0.16836 0.10648,0.50133 0,0.71429 -0.27232,0.54464 -0.93853,0.35714 -1.42857,0.35714 -0.11905,0 -0.27296,0.0842 -0.35714,0 -0.18823,-0.18823 -0.2381,-0.47619 -0.35715,-0.71428 -0.11904,-0.2381 -0.23809,-0.47619 -0.35714,-0.71429"
             style="fill:none;stroke:#000000;stroke-width:1px;stroke-linecap:butt;stroke-linejoin:miter;stroke-opacity:1" />
          <path
             inkscape:connector-curvature="0"
             id="path3034"
             d="m 185.71429,463.43361 c 2.40591,-2.40591 0.39799,-0.53268 2.85714,-2.5 0.13146,-0.10517 0.21706,-0.26375 0.35714,-0.35714 0.22149,-0.14766 0.4928,-0.20949 0.71429,-0.35715 0.14008,-0.0934 0.26375,-0.21706 0.35714,-0.35714 0.14766,-0.22149 0.13565,-0.56662 0.35714,-0.71428 0.19811,-0.13208 0.54593,0.16835 0.71429,0 0.16836,-0.16836 -0.0884,-0.49322 0,-0.71429 0.30035,-0.75089 0.88201,-1.23915 1.42857,-1.78571 0.11905,-0.11905 0.19742,-0.30391 0.35714,-0.35715 0.22588,-0.0753 0.48841,0.0753 0.71429,0 0.15972,-0.0532 0.20656,-0.28185 0.35714,-0.35714 0.0939,-0.0469 1.24182,0 1.42857,0 0.3714,0 1.86193,-0.0702 2.14286,0 0.25825,0.0646 0.45604,0.29258 0.71429,0.35714 0.23098,0.0577 0.50132,-0.10648 0.71428,0 0.10648,0.0532 -0.0842,0.27297 0,0.35715 0.0842,0.0842 0.24421,-0.0376 0.35714,0 0.25254,0.0842 0.46175,0.27296 0.71429,0.35714 0.11294,0.0376 0.27296,-0.0842 0.35714,0 0.86743,0.86743 -0.1062,0.52444 0.71429,1.07143 0.0665,0.0444 1.40568,0.6914 1.42857,0.71428 0.16836,0.16836 -0.16836,0.54593 0,0.71429 0.18823,0.18823 0.52606,0.16891 0.71429,0.35714 1.39383,1.39384 -0.0827,0.1918 0.35714,1.07143 0.0753,0.15058 0.26375,0.21706 0.35714,0.35714 0.14766,0.22149 0.20948,0.4928 0.35714,0.71429 0.0934,0.14008 0.30391,0.19742 0.35715,0.35714 0.0753,0.22588 -0.0467,0.48082 0,0.71429 0.18779,0.93896 0.72599,1.63642 1.07143,2.5 0.13981,0.34953 0.18878,0.73471 0.35714,1.07143 0.0753,0.15058 0.26375,0.21706 0.35714,0.35714 0.14766,0.22149 0.2381,0.47619 0.35714,0.71428 0.11905,0.2381 0.29258,0.45604 0.35715,0.71429 0.0577,0.23099 -0.10648,0.50133 0,0.71429 0.30117,0.60233 1.1274,0.82623 1.42857,1.42857 0.10648,0.21296 -0.10648,0.50132 0,0.71428 0.15058,0.30117 0.52751,0.43412 0.71428,0.71429 0.29533,0.44298 0.4762,0.95238 0.71429,1.42857 0.35174,0.70347 0.77944,1.41289 1.07143,2.14286 0.13981,0.34953 0.21733,0.72189 0.35714,1.07143 0.19773,0.49431 0.47619,0.95238 0.71429,1.42857 0.11905,0.23809 0.20948,0.49279 0.35714,0.71428 0.0934,0.14009 0.41038,0.19743 0.35714,0.35715 -0.10648,0.31943 -0.6078,0.39484 -0.71428,0.71428 -0.0644,0.19331 0.61266,0.40941 0.71428,0.71429 0.0753,0.22587 -0.0577,0.4833 0,0.71428 0.12913,0.5165 0.60988,0.90652 0.71429,1.42857 0.0716,0.35792 0,1.67781 0,2.14286 0,0.25533 0.0609,1.96004 0,2.14286 -0.0532,0.15972 -0.3039,0.19742 -0.35714,0.35714 -0.10715,0.32143 0.10714,0.75 0,1.07143 -0.0842,0.25254 -0.27297,0.46175 -0.35715,0.71429 -0.0819,0.24565 0.10536,0.8607 0,1.07142 -0.0753,0.15059 -0.28185,0.20656 -0.35714,0.35715 -0.0748,0.14968 0.0467,1.40523 0,1.42857 -0.21296,0.10648 -0.50133,-0.10648 -0.71429,0 -0.10647,0.0532 0.0842,0.27296 0,0.35714 -0.18823,0.18823 -0.59523,0.11905 -0.71428,0.35714 -0.0753,0.15059 0.35714,0.18879 0.35714,0.35715 0,0.11905 -0.27296,-0.0842 -0.35714,0 -0.0842,0.0842 0.11905,0.35714 0,0.35714 -0.11905,0 0.0842,-0.27296 0,-0.35714 -0.0842,-0.0842 -0.2381,0 -0.35714,0 -0.11905,0 -0.27297,-0.0842 -0.35715,0 -0.0842,0.0842 0.0842,0.27296 0,0.35714 -0.0842,0.0842 -0.23809,0 -0.35714,0 -0.23809,0 -0.47619,0 -0.71429,0 -0.23809,0 -0.50132,0.10648 -0.71428,0 -0.10648,-0.0532 0.11905,-0.35714 0,-0.35714 -0.16836,0 -0.19742,0.3039 -0.35714,0.35714 -0.0986,0.0329 -2.11677,0.0131 -2.14286,0 -0.54376,-0.27188 -0.20912,-0.71429 -1.07143,-0.71429 -0.11905,0 0.0842,0.27297 0,0.35715 -0.31206,0.31206 -0.57481,-0.35715 -0.71429,-0.35715 -0.11904,0 0.11905,0.35715 0,0.35715 -0.16835,0 -0.20655,-0.28185 -0.35714,-0.35715 -0.10648,-0.0532 -0.25066,0.0532 -0.35714,0 -0.15059,-0.0753 -0.20656,-0.28185 -0.35714,-0.35714 -0.10648,-0.0532 -0.25067,0.0532 -0.35715,0 -0.30117,-0.15058 -0.43412,-0.52751 -0.71428,-0.71428 -0.22149,-0.14766 -0.52606,-0.16892 -0.71429,-0.35715 -0.73894,-0.73894 1.1292,0.0289 -0.35714,-0.71428 -0.10648,-0.0532 -0.3039,0.10648 -0.35714,0 -0.10648,-0.21296 0.10648,-0.50133 0,-0.71429 -0.0532,-0.10648 -0.25067,0.0532 -0.35715,0 -0.15058,-0.0753 -0.21706,-0.26375 -0.35714,-0.35714 -0.22149,-0.14766 -0.49279,-0.20948 -0.71429,-0.35714 -0.14008,-0.0934 -0.20655,-0.28185 -0.35714,-0.35715 -0.10648,-0.0532 -0.23809,0 -0.35714,0"
             style="fill:none;stroke:#000000;stroke-width:1px;stroke-linecap:butt;stroke-linejoin:miter;stroke-opacity:1" />
          <path
             inkscape:connector-curvature="0"
             id="path3036"
             d="m 218.57143,429.86218 c 0.22028,0.27535 1.51621,2.03002 2.14286,2.5 0.21295,0.15972 0.56662,0.13565 0.71428,0.35714 0.13207,0.19811 -0.10648,0.50133 0,0.71429 0.80357,0 -0.0595,-0.11905 0.35714,0.71429 0.0532,0.10648 0.2381,0 0.35715,0 0.11905,0.11904 0.3039,0.19742 0.35714,0.35714 0.0753,0.22588 -0.10648,0.50133 0,0.71428 0.15059,0.30117 0.5637,0.41312 0.71429,0.71429 0.10648,0.21296 -0.0577,0.4833 0,0.71429 0.25895,1.03579 0.27863,0.41795 0.71428,1.07142 0.67658,-0.0407 0.2381,0.83334 0.35714,1.07143 0.0753,0.15059 0.26376,0.21706 0.35715,0.35715 0.11905,0.23809 0.23809,0.47619 0.35714,0.71428 0,0.11905 -0.0532,0.25067 0,0.35714 0.0753,0.15059 0.28185,0.20656 0.35714,0.35715 0.0476,0.0952 0,1.98129 0,2.14285 0,1.54762 0,3.09524 0,4.64286 0,1.07143 0,2.14286 0,3.21429 0,0.23809 0,0.47619 0,0.71428 0,0.2381 0.0578,0.4833 0,0.71429 -0.0646,0.25825 -0.29258,0.45603 -0.35714,0.71428 -0.0577,0.23099 0.19811,0.58222 0,0.71429 -0.29716,0.19811 -0.81889,-0.25254 -1.07143,0 -0.18823,0.18823 0.52606,0.16891 0.71429,0.35714 0.0842,0.0842 -0.27297,-0.0842 -0.35715,0 -0.0842,0.0842 0,0.2381 0,0.35715 0,0.11904 0,0.23809 0,0.35714 0,0.35714 0,0.71428 0,1.07143 0,0.11905 0.0842,0.27296 0,0.35714 -0.18823,0.18823 -0.59523,0.11905 -0.71428,0.35714 -0.0753,0.15059 0.28185,0.20656 0.35714,0.35715 0.0532,0.10648 0,0.23809 0,0.35714 0,0.23809 0.10648,0.50133 0,0.71428 -0.36947,0 -0.49362,-0.0842 -0.71428,0.35715 -0.10648,0.21296 0.10648,0.50132 0,0.71428 -0.0753,0.15059 -0.28185,0.20656 -0.35715,0.35715 -0.0532,0.10648 0.0842,0.27296 0,0.35714 -0.0842,0.0842 -0.2442,-0.0376 -0.35714,0 -2.58693,0.86231 0.56307,-0.10297 -1.07143,0.71428 -0.10648,0.0532 -0.23809,0 -0.35714,0 -0.2381,0 -0.47619,0 -0.71429,0 -0.11904,0 0.47619,0 0.35715,0 -0.2381,0 -0.47619,0 -0.71429,0 -0.0866,0 -1.05994,0.0115 -1.07143,0 -0.0842,-0.0842 0,-0.23809 0,-0.35714 0,-0.62334 0.10648,-0.3039 -0.71428,-0.71428"
             style="fill:none;stroke:#000000;stroke-width:1px;stroke-linecap:butt;stroke-linejoin:miter;stroke-opacity:1" />
          <path
             inkscape:connector-curvature="0"
             id="path3038"
             d="m 230.71429,442.36218 c 0.23809,-0.47619 0.3817,-1.01284 0.71428,-1.42857 1.73486,-2.16857 -0.0242,0.92912 1.07143,-0.71429 0.14766,-0.22149 0.16891,-0.52605 0.35714,-0.71428 1.82514,-1.82514 -0.49812,1.49749 1.42857,-1.07143 0.15972,-0.21296 0.16892,-0.52605 0.35715,-0.71429 0.60484,-0.60483 1.18087,-0.10944 1.78571,-0.71428 0.0842,-0.0842 -0.0842,-0.27296 0,-0.35714 0.47619,-0.47619 0.35714,0.59523 0.35714,-0.35715 0,-0.11904 -0.11904,-0.35714 0,-0.35714 0.11905,0 -0.0842,0.27296 0,0.35714 0.0842,0.0842 0.35715,-0.11904 0.35715,0 0,0.11905 -0.44132,0.0842 -0.35715,0 1.39384,-1.39383 0.19181,0.0827 1.07143,-0.35714 0.15059,-0.0753 0.19743,-0.3039 0.35715,-0.35714 0.22587,-0.0753 0.50132,0.10648 0.71428,0 0.10648,-0.0532 -0.0842,-0.27297 0,-0.35715 0.0842,-0.0842 0.2381,0 0.35714,0 0.11905,0 0.2381,0 0.35715,0 0.71428,0 1.42857,0 2.14285,0 0.11905,0 0.2381,0 0.35715,0 0.11905,0 0.25066,-0.0532 0.35714,0 0.15059,0.0753 0.20656,0.28186 0.35714,0.35715 0.10648,0.0532 0.27297,-0.0842 0.35715,0 0.0162,0.0162 0,1.61732 0,1.78571 0,0.11905 0.0842,0.27297 0,0.35714 -0.0842,0.0842 -0.27297,-0.0842 -0.35715,0 -0.0842,0.0842 0.11905,0.35715 0,0.35715 -0.11904,0 0.0842,-0.27297 0,-0.35715 -0.0842,-0.0842 -0.35714,0.11905 -0.35714,0 0,-0.11904 0.47619,0 0.35714,0 -0.35714,0 -0.71428,0 -1.07143,0 -0.23809,0 -0.50132,0.10648 -0.71428,0 -0.10648,-0.0532 0.0842,-0.27296 0,-0.35714 -0.12537,-0.12536 -1.53902,0.12335 -1.78572,0 -1.90476,-0.95238 1.19048,0 -0.71428,0 -0.16836,0 -0.20656,-0.28185 -0.35714,-0.35714 -0.0733,-0.0366 -1.02107,-0.0504 -1.07143,0 -0.0842,0.0842 0.11905,0.35714 0,0.35714 -0.11905,0 0.0842,-0.27296 0,-0.35714 -0.0842,-0.0842 -0.2381,0 -0.35715,0"
             style="fill:none;stroke:#000000;stroke-width:1px;stroke-linecap:butt;stroke-linejoin:miter;stroke-opacity:1" />
          <path
             inkscape:connector-curvature="0"
             id="path3040"
             d="m 233.21429,454.1479 c 1.09227,0.4407 2.08328,0.35714 3.21428,0.35714 0.2381,0 0.4833,0.0577 0.71429,0 0.25825,-0.0646 0.45171,-0.31338 0.71428,-0.35714 0.46971,-0.0783 0.96163,0.0934 1.42857,0 0.16509,-0.033 0.21706,-0.26376 0.35715,-0.35715 0.44298,-0.29532 0.95238,-0.47619 1.42857,-0.71428 0.23809,-0.11905 0.45603,-0.29258 0.71428,-0.35715 0.23099,-0.0577 0.50133,0.10648 0.71429,0 0.10648,-0.0532 -0.0842,-0.27296 0,-0.35714 0.0842,-0.0842 0.27296,0.0842 0.35714,0 0.0842,-0.0842 -0.0842,-0.27296 0,-0.35714 0.0842,-0.0842 0.35715,-0.11905 0.35715,0 0,0.11905 -0.27297,-0.0842 -0.35715,0 -0.0842,0.0842 0,0.23809 0,0.35714 0,0.11905 0,0.2381 0,0.35714"
             style="fill:none;stroke:#000000;stroke-width:1px;stroke-linecap:butt;stroke-linejoin:miter;stroke-opacity:1" />
          <path
             inkscape:connector-curvature="0"
             id="path3042"
             d="m 241.07143,467.00504 c 0.47619,-0.2381 1.19048,-1.19048 1.42857,-0.71429 0.2381,0.47619 -1.90476,0.47619 -1.42857,0.71429 0.71428,-0.11905 1.42857,-0.2381 2.14286,-0.35714 0,-0.11905 -0.0842,-0.27297 0,-0.35715 0.16835,-0.16836 0.4884,0.0753 0.71428,0 0.25254,-0.0842 0.46175,-0.27296 0.71429,-0.35714 0.11294,-0.0376 0.3039,0.10648 0.35714,0 0.10648,-0.21296 -0.16836,-0.54593 0,-0.71429 0.16836,-0.16835 0.51618,0.13208 0.71429,0 0.22149,-0.14766 0.16891,-0.52605 0.35714,-0.71428 0.18823,-0.18823 0.50133,-0.19742 0.71428,-0.35714 0.40407,-0.30305 0.71429,-0.71429 1.07143,-1.07143 0.11905,-0.11905 0.35715,-0.18879 0.35715,-0.35715 0,-0.11904 -0.27297,0.0842 -0.35715,0 -0.16836,-0.16835 0.10648,-0.50132 0,-0.71428 -0.0753,-0.15059 -0.47619,-0.2381 -0.35714,-0.35714 0.11905,-0.11905 0.47619,0.47619 0.35714,0.35714 -0.23809,-0.2381 -0.47619,-0.47619 -0.71428,-0.71429"
             style="fill:none;stroke:#000000;stroke-width:1px;stroke-linecap:butt;stroke-linejoin:miter;stroke-opacity:1" />
          <path
             inkscape:connector-curvature="0"
             id="path3044"
             d="m 240.71429,455.21932 c -0.11905,0.4762 -0.10461,1.00768 -0.35715,1.42858 -0.13695,0.22826 -0.52605,0.16891 -0.71428,0.35714 -1.39384,1.39383 0.0827,0.1918 -0.35715,1.07143 -0.0753,0.15058 -0.28185,0.20656 -0.35714,0.35714 -0.0532,0.10648 0.0532,0.25066 0,0.35714 -0.0753,0.15059 -0.28185,0.20656 -0.35714,0.35715 -0.10648,0.21295 0.10648,0.50132 0,0.71428 -0.0753,0.15059 -0.3039,0.19743 -0.35714,0.35714 -0.11294,0.33882 0,0.71429 0,1.07143 0,0.83334 0,1.66667 0,2.5 0,0.11905 0,0.2381 0,0.35715 0,0.11904 0.0842,0.27296 0,0.35714 -0.0842,0.0842 -0.30391,-0.10648 -0.35715,0 -0.10648,0.21296 0,0.47619 0,0.71428 0,0.2381 0,0.4762 0,0.71429 0,1.07143 0,2.14286 0,3.21429 0,1.66666 0,3.33333 0,5 0,0.16156 -0.0476,2.04767 0,2.14285 0.0753,0.15059 0.30391,0.19743 0.35715,0.35715 0.15058,0.45175 -0.15059,0.97681 0,1.42857 0.0532,0.15972 0.3039,0.19742 0.35714,0.35714 5.4e-4,0.002 -3.4e-4,1.07109 0,1.07143 0.18823,0.18823 0.52605,0.16891 0.71428,0.35714 0.0842,0.0842 0.11905,0.35714 0,0.35714 -0.16835,0 -0.18878,-0.35714 -0.35714,-0.35714 -0.11905,0 -0.0842,0.27297 0,0.35714 0.0842,0.0842 0.3039,-0.10647 0.35714,0 0.10648,0.21296 -0.10647,0.50133 0,0.71429 0.0532,0.10648 0.27297,-0.0842 0.35715,0 0.18823,0.18823 0.16891,0.52606 0.35714,0.71429 0.0842,0.0842 0.27296,-0.0842 0.35714,0 0.0842,0.0842 -0.0532,0.25066 0,0.35714 0.0753,0.15058 0.2381,0.23809 0.35715,0.35714 0.23809,0.2381 0.47619,0.47619 0.71428,0.71429 0.11905,0.11905 0.18879,0.35714 0.35714,0.35714 0.11905,0 -0.11904,-0.35714 0,-0.35714 0.11905,0 -0.0842,0.27296 0,0.35714 0.0977,0.0977 1.23483,-0.0969 1.42858,0 0.15058,0.0753 0.20655,0.28185 0.35714,0.35714 0.21296,0.10648 0.48841,-0.0753 0.71428,0 1.39087,0.46363 0.0334,0.35715 1.42858,0.35715 0.11904,0 0.3039,0.10648 0.35714,0 0.10648,-0.21296 -0.10648,-0.50133 0,-0.71429 0.10648,-0.21296 0.50133,0.10648 0.71428,0 0.15059,-0.0753 0.20656,-0.28185 0.35715,-0.35714 0.10648,-0.0532 0.2442,0.0376 0.35714,0 0.25254,-0.0842 0.46175,-0.27297 0.71429,-0.35715 0.11293,-0.0376 0.35714,0.11905 0.35714,0 0,-0.16835 -0.35714,-0.18878 -0.35714,-0.35714 0,-0.16836 0.23809,-0.23809 0.35714,-0.35714 0.11905,-0.11905 0.18878,-0.35714 0.35714,-0.35714 0.11905,0 -0.11905,0.35714 0,0.35714 0.2662,0 0.45604,-0.29258 0.71429,-0.35714 0.23098,-0.0577 0.6078,0.21295 0.71428,0 C 250.47619,481.4098 250,481.19981 250,480.93361 c 0,-0.11905 0.25066,0.0532 0.35714,0 0.15059,-0.0753 0.20656,-0.28185 0.35715,-0.35714 0.10648,-0.0532 0.27296,0.0842 0.35714,0 0.18823,-0.18823 0.27296,-0.46175 0.35714,-0.71429 0.0711,-0.21333 -0.0943,-0.66715 0,-0.71428 0.21296,-0.10648 0.47619,0 0.71429,0 0.11905,0 0.27296,0.0842 0.35714,0 0.16836,-0.16836 -0.16836,-0.54593 0,-0.71429 0.0842,-0.0842 0.27296,0.0842 0.35714,0 0.0842,-0.0842 -0.0532,-0.25066 0,-0.35714 0.0753,-0.15059 0.35715,-0.18879 0.35715,-0.35715 0,-0.16835 -0.35715,-0.18878 -0.35715,-0.35714 0,-0.11905 0.30391,0.10648 0.35715,0 0.1463,-0.29261 -0.13357,-2.09931 0,-2.5 0.0532,-0.15972 0.3039,-0.19742 0.35714,-0.35714 0.0753,-0.22588 0,-0.47619 0,-0.71429 0,-0.23809 0,-0.47619 0,-0.71428 0,-0.95238 0,-1.90476 0,-2.85715"
             style="fill:none;stroke:#000000;stroke-width:1px;stroke-linecap:butt;stroke-linejoin:miter;stroke-opacity:1" />
          <path
             inkscape:connector-curvature="0"
             id="path3046"
             d="m 257.85714,438.07647 c 0.35715,0.71428 0.71429,1.42857 1.07143,2.14285 0.11905,0.2381 0.14419,0.55457 0.35714,0.71429 0.30117,0.22588 0.77026,0.13127 1.07143,0.35714 0.73323,0.54992 0.13361,1.47225 0.35715,2.14286 0.16835,0.50508 0.44037,0.97204 0.71428,1.42857 0.0866,0.14437 0.31631,0.19381 0.35714,0.35714 0.21655,0.56858 -0.14436,1.20825 0,1.78572 0.0646,0.25825 0.35715,0.44809 0.35715,0.71428 0,0.11905 -0.35715,-0.11904 -0.35715,0 0,0.2662 0.31338,0.45171 0.35715,0.71429 0.0783,0.46971 0,0.95238 0,1.42857 0,0.2381 -0.0577,0.4833 0,0.71429 0.0646,0.25825 0.35714,0.44808 0.35714,0.71428 0,1.68552 -0.77182,-0.23013 -0.35714,1.42857 0.0646,0.25826 0.27296,0.46175 0.35714,0.71429 0.0753,0.22588 -0.10648,0.50133 0,0.71429 0.0753,0.15058 0.3039,0.19742 0.35714,0.35714 0.0753,0.22588 -0.0753,0.48841 0,0.71428 0.0532,0.15972 0.28185,0.20656 0.35715,0.35715 0.0947,0.18937 -0.081,1.54275 0,1.78571 0.27187,0.81563 0.71428,-0.22076 0.71428,1.07143 0,0.16836 -0.3039,0.19742 -0.35714,0.35714 -0.25855,0.77565 0.18259,0.73035 0.35714,1.42857 0.0162,0.0647 -0.0222,1.76348 0,1.78572 0.0842,0.0842 0.3039,-0.10648 0.35714,0 0.10648,0.21296 -0.13207,0.51618 0,0.71428 0.14767,0.2215 0.56663,0.13566 0.71429,0.35715 0.13207,0.1981 -0.0391,0.47943 0,0.71428 0.0807,0.48417 0.20192,0.96292 0.35714,1.42857 0.0376,0.11294 -0.11904,-0.35714 0,-0.35714 0.16836,0 0.28185,0.20656 0.35715,0.35714 0.5255,1.05101 -0.82735,-0.4702 0.35714,0.71429"
             style="fill:none;stroke:#000000;stroke-width:1px;stroke-linecap:butt;stroke-linejoin:miter;stroke-opacity:1" />
          <path
             inkscape:connector-curvature="0"
             id="path3048"
             d="m 268.57143,414.86218 c 0.35714,0.47619 0.65053,1.00768 1.07143,1.42857 0.18823,0.18823 0.48602,0.22019 0.71428,0.35715 0.36807,0.22083 0.76792,0.41077 1.07143,0.71428 0.18823,0.18823 0.19743,0.50133 0.35714,0.71429 0.9824,1.30986 0.78235,0.13612 1.78572,2.14285 0.21951,0.43903 0.16379,0.97742 0.35714,1.42858 0.15209,0.35488 1.69425,2.40853 1.78572,2.5 0.42089,0.42089 1.00767,0.65053 1.42857,1.07142 0.42089,0.4209 0.71428,0.95239 1.07143,1.42858 0.35714,0.47619 0.80523,0.89617 1.07142,1.42857 0.81966,1.63931 -0.22854,1.20002 1.07143,2.5 0.18823,0.18823 0.50133,0.19742 0.71429,0.35714 0.26937,0.20203 0.43412,0.52751 0.71428,0.71429 0.44299,0.29532 1.09599,0.29855 1.42858,0.71428 0.2231,0.27888 -0.0981,0.72803 0,1.07143 -0.83613,1.34178 0.85191,1.12718 1.07142,1.78571 0.0753,0.22588 -0.0753,0.48841 0,0.71429 0.0532,0.15972 0.30391,0.19742 0.35715,0.35714 0.0753,0.22588 -0.0753,0.48841 0,0.71429 0.0532,0.15972 0.3039,0.19742 0.35714,0.35714 0.15059,0.45176 -0.21296,1.00266 0,1.42857 0.0532,0.10648 0.3039,-0.10648 0.35714,0 0.10648,0.21296 -0.0753,0.48841 0,0.71429 0.0532,0.15972 0.2381,0.23809 0.35715,0.35714 0.11904,0.2381 0.30493,0.45326 0.35714,0.71429 0.07,0.3502 0,0.71428 0,1.07143 0,0.83333 0,1.66666 0,2.5 0,0.23809 -0.10648,0.50132 0,0.71428 0.15058,0.30117 0.52751,0.43412 0.71428,0.71429 0.0847,0.12696 -0.0491,1.30582 0,1.42857 0.15942,0.39853 0.61019,0.65501 0.71429,1.07143 0.0408,0.16333 -0.23809,0.23809 -0.35714,0.35714 0.11905,0.35714 0.21733,0.72189 0.35714,1.07143 0.64737,1.61843 0.033,0.0495 0.71429,1.07143 0.14766,0.22149 0.23809,0.47619 0.35714,0.71428 0.11905,0.2381 0.30494,0.45326 0.35714,0.71429 0.0314,0.15714 -0.0396,2.08338 0,2.14286 0.14766,0.22149 0.59524,0.11904 0.71429,0.35714 0.0753,0.15058 -0.30391,0.19742 -0.35715,0.35714 -0.0753,0.22588 0,0.47619 0,0.71429 0,0.47619 -0.0783,0.95886 0,1.42857 0.0875,0.52515 0.58517,0.91207 0.71429,1.42857 0.0577,0.23099 0,0.47619 0,0.71429 0,0.83333 0,1.66666 0,2.5 0,0.23809 -0.0577,0.4833 0,0.71428 0.0646,0.25825 0.29258,0.45604 0.35714,0.71429 0.0577,0.23098 0,0.47619 0,0.71428 0,0.2381 0,0.47619 0,0.71429 0,1.07143 0,2.14286 0,3.21428 0,2.61905 0,5.2381 0,7.85715 0,1.54762 0,3.09524 0,4.64285 0,0.4762 0,0.95239 0,1.42858 0,0.23809 -0.0577,0.4833 0,0.71428 0.0646,0.25825 0.35715,0.44809 0.35715,0.71429 0,1.46344 -0.66921,-0.53396 -0.35715,0.71428 0.0913,0.36522 0.26584,0.70621 0.35715,1.07143 0.0764,0.30555 0,1.42875 0,1.78572 0,2.02381 0,4.04762 0,6.07142 0,0.4762 0,0.95239 0,1.42858 0,0.23809 0,0.47619 0,0.71428 0,0.11905 0.0532,0.25067 0,0.35714 -0.0753,0.15059 -0.35715,0.18879 -0.35715,0.35715 0,0.11905 0.27297,-0.0842 0.35715,0 0.0842,0.0842 0.10648,0.3039 0,0.35714 -0.21296,0.10648 -0.47619,0 -0.71429,0 -0.11905,0 0.25066,-0.0532 0.35714,0 0.15059,0.0753 0.35715,0.18878 0.35715,0.35714 0,0.11905 -0.2381,0 -0.35715,0 -0.16084,0 -0.96273,0.0543 -1.07143,0 -0.15058,-0.0753 -0.19742,-0.3039 -0.35714,-0.35714 -0.40922,-0.13641 -1.8204,0.16123 -2.14286,0 -0.10647,-0.0532 0.0842,-0.27296 0,-0.35714 -0.16835,-0.16836 -0.50132,0.10648 -0.71428,0 -0.15059,-0.0753 -0.19742,-0.30391 -0.35714,-0.35715 -2.02381,0 -0.11905,0.2381 -0.71429,-0.35714 -0.16836,-0.16836 -0.54593,0.16836 -0.71429,0 -0.18823,-0.18823 -0.16891,-0.52605 -0.35714,-0.71428 -0.0842,-0.0842 -0.25066,0.0532 -0.35714,0 -0.27188,-0.13594 -0.71429,-0.85394 -0.71429,-1.07143 0,-0.17857 1.54762,0.47619 0.35715,-0.71429 -0.5808,-0.58079 -0.75937,0.57904 -1.07143,-0.35714 -5.4e-4,-0.002 3.4e-4,-1.07109 0,-1.07143 -0.0842,-0.0842 -0.27297,0.0842 -0.35715,0 -0.0842,-0.0842 0,-0.23809 0,-0.35714 0,-0.3778 -0.0613,-2.31601 0,-2.5 0.0532,-0.15972 0.28186,-0.20656 0.35715,-0.35715 0.0532,-0.10647 -0.0842,-0.27296 0,-0.35714 0.18823,-0.18823 0.59524,-0.11905 0.71428,-0.35714 0.0753,-0.15059 -0.35714,-0.18879 -0.35714,-0.35714 0,-0.2662 0.27296,-0.46175 0.35714,-0.71429 0.0376,-0.11294 -0.0376,-0.2442 0,-0.35714 0.16836,-0.50508 0.54593,-0.9235 0.71429,-1.42857 0.0376,-0.11294 -0.0842,-0.27297 0,-0.35715 0.18823,-0.18823 0.50133,-0.19742 0.71428,-0.35714 0.53875,-0.40406 0.90271,-1.00788 1.42858,-1.42857 0.33517,-0.26814 0.83333,-0.35714 1.07142,-0.71429 0.27228,-0.40841 0.10461,-1.00767 0.35715,-1.42857 0.13696,-0.22826 0.47619,-0.23809 0.71428,-0.35714 0,-0.35714 -0.07,-0.72122 0,-1.07143 0.30303,-1.51515 0.29221,-0.0325 1.07143,-1.07143 0.22588,-0.30117 0.21733,-0.72189 0.35714,-1.07143 0.0989,-0.24716 0.30494,-0.45325 0.35715,-0.71428 0.11673,-0.58368 0,-1.19048 0,-1.78572"
             style="fill:none;stroke:#000000;stroke-width:1px;stroke-linecap:butt;stroke-linejoin:miter;stroke-opacity:1" />
        </g>
      </g>
    </g>
  </g>
</svg>
